<svg width="610" height="483" viewBox="0 0 610 483" fill="none" xmlns="http://www.w3.org/2000/svg">
<g filter="url(#filter0_d_10_1011)">
<rect x="208.498" y="141.217" width="181.404" height="181.404" rx="36" fill="white"/>
</g>
<path d="M323.836 204.134C321.065 204.137 318.408 205.24 316.449 207.199C314.49 209.159 313.388 211.816 313.385 214.587V240.621C313.414 242.484 313.073 244.334 312.38 246.064C311.688 247.794 310.658 249.368 309.351 250.696C308.044 252.024 306.486 253.079 304.767 253.798C303.049 254.518 301.204 254.889 299.341 254.889C297.478 254.889 295.633 254.518 293.915 253.798C292.196 253.079 290.638 252.024 289.331 250.696C288.024 249.368 286.995 247.794 286.302 246.064C285.609 244.334 285.268 242.484 285.297 240.621V214.587C285.297 211.815 284.196 209.156 282.236 207.196C280.276 205.236 277.618 204.135 274.846 204.135C272.074 204.135 269.416 205.236 267.456 207.196C265.496 209.156 264.395 211.815 264.395 214.587V243.378C264.395 247.967 265.299 252.512 267.055 256.751C268.811 260.991 271.385 264.844 274.63 268.089C277.875 271.334 281.728 273.908 285.968 275.664C290.208 277.42 294.752 278.324 299.341 278.324C303.93 278.324 308.475 277.42 312.715 275.664C316.955 273.908 320.807 271.334 324.052 268.089C327.297 264.844 329.871 260.991 331.627 256.751C333.384 252.512 334.288 247.967 334.288 243.378V214.587C334.285 211.816 333.183 209.159 331.223 207.199C329.264 205.24 326.607 204.137 323.836 204.134ZM329.715 243.376C329.715 251.432 326.515 259.157 320.819 264.853C315.123 270.549 307.397 273.75 299.341 273.75C291.285 273.75 283.56 270.549 277.864 264.853C272.167 259.157 268.967 251.432 268.967 243.376V214.587C268.981 213.036 269.606 211.554 270.707 210.462C271.808 209.371 273.296 208.758 274.846 208.758C276.396 208.758 277.884 209.371 278.985 210.462C280.086 211.554 280.711 213.036 280.725 214.587V240.621C280.725 245.559 282.686 250.294 286.177 253.785C289.669 257.277 294.404 259.238 299.341 259.238C304.279 259.238 309.014 257.277 312.505 253.785C315.996 250.294 317.957 245.559 317.957 240.621V214.587C317.957 213.028 318.577 211.532 319.679 210.43C320.782 209.327 322.277 208.708 323.836 208.708C325.396 208.708 326.891 209.327 327.993 210.43C329.096 211.532 329.715 213.028 329.715 214.587V243.376Z" fill="url(#paint0_linear_10_1011)"/>
<path d="M297.055 209.463V239.604C297.055 240.21 297.295 240.792 297.724 241.22C298.153 241.649 298.734 241.89 299.341 241.89C299.947 241.89 300.529 241.649 300.957 241.22C301.386 240.792 301.627 240.21 301.627 239.604V209.463C304.579 208.894 307.213 207.246 309.014 204.839C310.816 202.433 311.656 199.441 311.37 196.449C311.084 193.456 309.694 190.678 307.469 188.656C305.245 186.634 302.347 185.513 299.341 185.513C296.335 185.513 293.436 186.634 291.212 188.656C288.988 190.678 287.597 193.456 287.311 196.449C287.026 199.441 287.866 202.433 289.667 204.839C291.469 207.246 294.103 208.894 297.055 209.463ZM299.341 190.091C300.826 190.091 302.279 190.531 303.514 191.357C304.75 192.182 305.712 193.355 306.281 194.728C306.85 196.101 306.998 197.611 306.708 199.068C306.418 200.525 305.703 201.864 304.652 202.915C303.602 203.965 302.263 204.68 300.806 204.97C299.349 205.26 297.838 205.111 296.466 204.543C295.093 203.974 293.92 203.011 293.095 201.776C292.269 200.54 291.829 199.088 291.829 197.602C291.831 195.611 292.623 193.701 294.032 192.293C295.44 190.885 297.349 190.093 299.341 190.091Z" fill="url(#paint1_linear_10_1011)"/>
<g filter="url(#filter1_d_10_1011)">
<rect x="496.423" y="110.631" width="107.577" height="109.686" rx="30" fill="white"/>
</g>
<g filter="url(#filter2_d_10_1011)">
<rect x="36.5856" y="56.8433" width="101.249" height="100.194" rx="30" fill="white"/>
</g>
<g filter="url(#filter3_d_10_1011)">
<rect x="82.9912" y="274.106" width="97.03" height="97.03" rx="30" fill="white"/>
</g>
<g filter="url(#filter4_d_10_1011)">
<rect x="229.591" y="377.464" width="53.7884" height="53.7884" rx="15" fill="white"/>
</g>
<g filter="url(#filter5_d_10_1011)">
<rect x="6" y="289.926" width="46.4056" height="46.4056" rx="13" fill="white"/>
</g>
<g filter="url(#filter6_d_10_1011)">
<rect x="57.679" y="192.896" width="53.7884" height="53.7884" rx="15" fill="white"/>
</g>
<g filter="url(#filter7_d_10_1011)">
<rect x="153.654" y="13.6016" width="45.351" height="44.2963" rx="12" fill="white"/>
</g>
<g filter="url(#filter8_d_10_1011)">
<rect x="420.487" y="189.732" width="47.4603" height="46.4056" rx="14" fill="white"/>
</g>
<g filter="url(#filter9_d_10_1011)">
<rect x="531.228" y="254.067" width="46.4056" height="46.4056" rx="14" fill="white"/>
</g>
<g filter="url(#filter10_d_10_1011)">
<rect x="478.494" y="372.19" width="47.4603" height="47.4603" rx="14" fill="white"/>
</g>
<g filter="url(#filter11_d_10_1011)">
<rect x="329.785" y="373.245" width="97.03" height="98.0847" rx="22" fill="white"/>
</g>
<g filter="url(#filter12_d_10_1011)">
<rect x="336.113" y="2" width="89.6473" height="89.6473" rx="18" fill="white"/>
</g>
<g filter="url(#filter13_d_10_1011)">
<rect x="227.481" y="50.5151" width="63.2804" height="64.3351" rx="14" fill="white"/>
</g>
<g filter="url(#filter14_d_10_1011)">
<rect x="455.291" y="57.8979" width="41.1323" height="40.0776" rx="9" fill="white"/>
</g>
<g filter="url(#filter15_d_10_1011)">
<rect x="426.815" y="274.106" width="66.4444" height="66.4444" rx="15" fill="white"/>
</g>
<g filter="url(#filter16_d_10_1011)">
<rect x="138.889" y="402.776" width="69.6085" height="69.6085" rx="15" fill="white"/>
</g>
<path d="M362.48 429.408C362.48 430.107 362.202 430.778 361.707 431.272C361.213 431.767 360.542 432.045 359.843 432.045C359.144 432.045 358.473 431.767 357.978 431.272C357.484 430.778 357.206 430.107 357.206 429.408V417.543C357.206 416.844 357.484 416.173 357.978 415.679C358.473 415.184 359.144 414.906 359.843 414.906C360.542 414.906 361.213 415.184 361.707 415.679C362.202 416.173 362.48 416.844 362.48 417.543V429.408Z" fill="#3DDB85"/>
<path d="M399.393 429.408C399.393 430.107 399.115 430.778 398.621 431.272C398.126 431.767 397.456 432.045 396.756 432.045C396.057 432.045 395.386 431.767 394.892 431.272C394.398 430.778 394.12 430.107 394.12 429.408V417.543C394.12 416.844 394.398 416.173 394.892 415.679C395.386 415.184 396.057 414.906 396.756 414.906C397.456 414.906 398.126 415.184 398.621 415.679C399.115 416.173 399.393 416.844 399.393 417.543V429.408Z" fill="#3DDB85"/>
<path d="M375.663 443.909C375.663 444.608 375.385 445.278 374.891 445.773C374.396 446.267 373.726 446.545 373.026 446.545C372.327 446.545 371.656 446.267 371.162 445.773C370.667 445.278 370.39 444.608 370.39 443.909V432.043C370.39 431.344 370.667 430.673 371.162 430.179C371.656 429.685 372.327 429.407 373.026 429.407C373.726 429.407 374.396 429.685 374.891 430.179C375.385 430.673 375.663 431.344 375.663 432.043V443.909Z" fill="#3DDB85"/>
<path d="M386.21 443.909C386.21 444.608 385.932 445.278 385.437 445.773C384.943 446.267 384.272 446.545 383.573 446.545C382.874 446.545 382.203 446.267 381.709 445.773C381.214 445.278 380.936 444.608 380.936 443.909V432.043C380.936 431.344 381.214 430.673 381.709 430.179C382.203 429.685 382.874 429.407 383.573 429.407C384.272 429.407 384.943 429.685 385.437 430.179C385.932 430.673 386.21 431.344 386.21 432.043V443.909Z" fill="#3DDB85"/>
<path d="M365.116 414.906V434.68C365.116 435.379 365.394 436.05 365.888 436.544C366.383 437.039 367.054 437.317 367.753 437.317H388.846C389.546 437.317 390.216 437.039 390.711 436.544C391.205 436.05 391.483 435.379 391.483 434.68V414.906H365.116Z" fill="#3DDB85"/>
<path d="M378.3 401.722C370.39 401.722 365.571 406.527 365.116 412.268H391.483C391.027 406.527 386.21 401.722 378.3 401.722ZM373.026 409.102C372.677 409.102 372.341 408.963 372.094 408.716C371.847 408.468 371.708 408.133 371.708 407.783C371.708 407.434 371.847 407.098 372.094 406.851C372.341 406.604 372.677 406.465 373.026 406.465C373.376 406.465 373.711 406.604 373.958 406.851C374.206 407.098 374.345 407.434 374.345 407.783C374.345 408.133 374.206 408.468 373.958 408.716C373.711 408.963 373.376 409.102 373.026 409.102ZM383.573 409.102C383.223 409.102 382.888 408.963 382.641 408.716C382.394 408.468 382.255 408.133 382.255 407.783C382.255 407.434 382.394 407.098 382.641 406.851C382.888 406.604 383.223 406.465 383.573 406.465C383.923 406.465 384.258 406.604 384.505 406.851C384.752 407.098 384.891 407.434 384.891 407.783C384.891 408.133 384.752 408.468 384.505 408.716C384.258 408.963 383.923 409.102 383.573 409.102Z" fill="#3DDB85"/>
<path d="M386.21 400.403L384.013 403.698" stroke="#3DDB85" stroke-width="2" stroke-linecap="round"/>
<path d="M370.39 400.403L372.147 403.148" stroke="#3DDB85" stroke-width="2" stroke-linecap="round"/>
<g clip-path="url(#clip0_10_1011)">
<g clip-path="url(#clip1_10_1011)">
<path d="M98.0073 117.21H74.0073V93.21H98.0073L86.0073 105.21L98.0073 117.21Z" fill="black"/>
</g>
<path d="M87.8358 83.21L64.0073 108.269V130.67L87.8016 106.834L111.468 83.21H87.8358Z" fill="url(#paint2_linear_10_1011)"/>
<path d="M64.0076 130.67L87.8019 106.834L111.468 130.67H64.0076Z" fill="url(#paint3_linear_10_1011)"/>
<path d="M64.0073 83.21H87.8358L64.0073 108.269V83.21Z" fill="url(#paint4_linear_10_1011)"/>
</g>
<g clip-path="url(#clip2_10_1011)">
<path d="M444.745 292.035H476.385V323.675H444.745V292.035Z" fill="#F7DF1E"/>
<path d="M453.064 318.476L455.485 317.011C455.952 317.839 456.377 318.54 457.397 318.54C458.374 318.54 458.99 318.157 458.99 316.671V306.561H461.963V316.713C461.963 319.792 460.158 321.194 457.524 321.194C455.146 321.194 453.765 319.962 453.064 318.476" fill="black"/>
<path d="M463.578 318.157L465.999 316.756C466.636 317.797 467.465 318.561 468.93 318.561C470.162 318.561 470.948 317.945 470.948 317.096C470.948 316.076 470.141 315.715 468.781 315.12L468.038 314.802C465.893 313.889 464.47 312.742 464.47 310.32C464.47 308.09 466.169 306.391 468.824 306.391C470.714 306.391 472.074 307.05 473.051 308.77L470.735 310.257C470.226 309.344 469.674 308.983 468.824 308.983C467.953 308.983 467.401 309.535 467.401 310.257C467.401 311.149 467.953 311.51 469.227 312.062L469.971 312.381C472.498 313.464 473.921 314.568 473.921 317.053C473.921 319.729 471.819 321.195 468.994 321.195C466.233 321.195 464.449 319.878 463.578 318.158" fill="black"/>
</g>
<g clip-path="url(#clip3_10_1011)">
<path d="M380.735 23.1064C368.716 23.1064 369.466 28.3392 369.466 28.3392L369.48 33.7605H380.95V35.3881H364.924C364.924 35.3881 357.233 34.5124 357.233 46.6874C357.233 58.8627 363.946 58.4309 363.946 58.4309H367.952V52.7811C367.952 52.7811 367.736 46.0417 374.558 46.0417H385.934C385.934 46.0417 392.326 46.1454 392.326 39.8404V29.4155C392.326 29.4155 393.296 23.1064 380.735 23.1064ZM374.411 26.7521C374.682 26.7519 374.95 26.8053 375.201 26.9093C375.451 27.0133 375.679 27.1659 375.87 27.3583C376.062 27.5507 376.214 27.7792 376.318 28.0306C376.421 28.2821 376.474 28.5515 376.474 28.8236C376.474 29.0958 376.421 29.3652 376.318 29.6167C376.214 29.8681 376.062 30.0966 375.87 30.289C375.679 30.4814 375.451 30.634 375.201 30.738C374.95 30.842 374.682 30.8954 374.411 30.8952C374.14 30.8954 373.871 30.842 373.621 30.738C373.37 30.634 373.143 30.4814 372.951 30.289C372.76 30.0966 372.608 29.8681 372.504 29.6167C372.4 29.3652 372.347 29.0958 372.347 28.8236C372.347 28.5515 372.4 28.2821 372.504 28.0306C372.608 27.7792 372.76 27.5507 372.951 27.3583C373.143 27.1659 373.37 27.0133 373.621 26.9093C373.871 26.8053 374.14 26.7519 374.411 26.7521Z" fill="url(#paint5_linear_10_1011)"/>
<path d="M381.077 70.3908C393.096 70.3908 392.345 65.1581 392.345 65.1581L392.332 59.737H380.862V58.1094H396.887C396.887 58.1094 404.579 58.9851 404.579 46.8097C404.579 34.6346 397.866 35.0663 397.866 35.0663H393.859V40.716C393.859 40.716 394.075 47.4554 387.253 47.4554H375.877C375.877 47.4554 369.486 47.3517 369.486 53.6569V64.0819C369.486 64.0819 368.515 70.3908 381.076 70.3908H381.077ZM387.401 66.7455C387.13 66.7457 386.862 66.6923 386.611 66.5883C386.361 66.4843 386.133 66.3317 385.941 66.1393C385.75 65.9469 385.598 65.7184 385.494 65.467C385.391 65.2156 385.337 64.9461 385.338 64.674C385.337 64.4019 385.39 64.1324 385.494 63.8809C385.598 63.6294 385.75 63.401 385.941 63.2085C386.133 63.0161 386.361 62.8635 386.611 62.7595C386.861 62.6555 387.13 62.602 387.401 62.6023C387.672 62.602 387.94 62.6555 388.191 62.7595C388.441 62.8635 388.669 63.0161 388.861 63.2085C389.052 63.4009 389.204 63.6293 389.308 63.8808C389.411 64.1322 389.465 64.4017 389.464 64.6738C389.465 64.9459 389.411 65.2154 389.308 65.4668C389.204 65.7183 389.052 65.9467 388.861 66.1391C388.669 66.3315 388.441 66.4841 388.191 66.5881C387.94 66.6921 387.672 66.7455 387.401 66.7453V66.7455Z" fill="url(#paint6_linear_10_1011)"/>
</g>
<g clip-path="url(#clip4_10_1011)">
<path d="M561.035 138.08C560.919 137.95 556.729 138.131 553.083 142.089C549.437 146.042 549.998 150.578 550.08 150.694C550.162 150.81 555.279 150.991 558.545 146.391C561.811 141.791 561.151 138.214 561.035 138.08ZM572.37 178.21C572.206 177.881 564.418 173.989 565.143 166.506C565.868 159.019 570.872 156.967 570.95 156.744C571.029 156.522 568.908 154.042 566.661 152.787C565.011 151.902 563.185 151.395 561.316 151.303C560.946 151.292 559.664 150.978 557.027 151.699C555.289 152.175 551.373 153.714 550.296 153.776C549.215 153.837 546 151.99 542.542 151.501C540.329 151.074 537.983 151.949 536.303 152.623C534.627 153.293 531.44 155.202 529.21 160.274C526.98 165.343 528.146 173.373 528.981 175.87C529.815 178.364 531.118 182.451 533.335 185.433C535.305 188.799 537.918 191.135 539.009 191.928C540.1 192.722 543.178 193.248 545.312 192.157C547.029 191.104 550.128 190.499 551.352 190.543C552.573 190.587 554.981 191.07 557.447 192.386C559.4 193.06 561.247 192.78 563.097 192.027C564.948 191.271 567.626 188.405 570.752 182.594C571.939 179.892 572.479 178.432 572.37 178.21Z" fill="black"/>
<path d="M561.035 138.08C560.919 137.95 556.729 138.131 553.083 142.089C549.437 146.042 549.998 150.578 550.08 150.694C550.162 150.81 555.279 150.991 558.545 146.391C561.811 141.791 561.151 138.214 561.035 138.08ZM572.37 178.21C572.206 177.881 564.418 173.989 565.143 166.506C565.868 159.019 570.872 156.967 570.95 156.744C571.029 156.522 568.908 154.042 566.661 152.787C565.011 151.902 563.185 151.395 561.316 151.303C560.946 151.292 559.664 150.978 557.027 151.699C555.289 152.175 551.373 153.714 550.296 153.776C549.215 153.837 546 151.99 542.542 151.501C540.329 151.074 537.983 151.949 536.303 152.623C534.627 153.293 531.44 155.202 529.21 160.274C526.98 165.343 528.146 173.373 528.981 175.87C529.815 178.364 531.118 182.451 533.335 185.433C535.305 188.799 537.918 191.135 539.009 191.928C540.1 192.722 543.178 193.248 545.312 192.157C547.029 191.104 550.128 190.499 551.352 190.543C552.573 190.587 554.981 191.07 557.447 192.386C559.4 193.06 561.247 192.78 563.097 192.027C564.948 191.271 567.626 188.405 570.752 182.594C571.939 179.892 572.479 178.432 572.37 178.21Z" fill="black"/>
</g>
<g clip-path="url(#clip5_10_1011)">
<path d="M456.609 215.901V207.991H454.632V217.879H460.564V215.901H456.609Z" fill="#F88316"/>
<path d="M452.654 207.991H450.677L449.194 211.946L447.711 207.991H445.733V217.879H447.711V210.957L449.194 214.913L450.677 210.957V217.879H452.654V207.991Z" fill="#F88316"/>
<path d="M437.823 209.969H439.801V217.879H441.778V209.969H443.756V207.991H437.823V209.969Z" fill="#F88316"/>
<path d="M433.868 207.991V211.946H430.902V207.991H428.924V217.879H430.902V213.924H433.868V217.879H435.846V207.991H433.868Z" fill="#F88316"/>
</g>
<path d="M138.237 301.408C138.237 301.408 149.507 307.85 152.456 318.085C155.113 327.33 152.985 331.742 152.985 331.742C154.344 333.223 155.415 334.944 156.143 336.818C156.874 338.021 157.303 339.384 157.395 340.789C157.487 342.195 157.237 343.601 156.669 344.89C156.669 344.89 156.487 341.119 150.868 340.338C145.718 339.613 143.845 344.627 134.01 344.384C128.56 344.28 123.218 342.845 118.45 340.203C113.683 337.561 109.633 333.793 106.656 329.228C111.461 331.849 117.757 335.919 125.597 335.293C133.437 334.668 135.074 332.259 135.074 332.259C126.261 325.285 118.461 317.12 111.896 307.999C118.059 313.156 133.326 323.42 132.971 323.159C127.387 317.702 122.277 311.78 117.699 305.456C117.699 305.456 140.604 324.288 142.448 324.169C143.206 322.608 147.123 314.529 138.235 301.406L138.237 301.408Z" fill="url(#paint7_linear_10_1011)"/>
<path d="M259.122 86.4711C260.942 86.4711 262.417 84.9955 262.417 83.1752C262.417 81.355 260.942 79.8794 259.122 79.8794C257.301 79.8794 255.826 81.355 255.826 83.1752C255.826 84.9955 257.301 86.4711 259.122 86.4711Z" fill="#00D8FF"/>
<path d="M259.122 90.7321C255.16 90.828 251.209 90.294 247.415 89.1501C245.662 88.5946 244.028 87.7194 242.594 86.5688C242.046 86.1758 241.591 85.669 241.258 85.0832C240.925 84.4975 240.723 83.8467 240.665 83.1754C240.665 80.9962 243.059 78.8605 247.069 77.463C250.965 76.2248 255.035 75.6246 259.122 75.6859C263.154 75.6296 267.169 76.2188 271.016 77.4314C272.704 77.9695 274.283 78.8024 275.68 79.8914C276.218 80.2661 276.667 80.7546 276.995 81.3221C277.323 81.8896 277.522 82.5223 277.578 83.1754C277.578 85.4403 274.902 87.7355 270.591 89.162C266.871 90.2686 263.003 90.7981 259.122 90.7321ZM259.122 77.2626C255.212 77.2104 251.318 77.7809 247.587 78.9527C243.896 80.2408 242.242 82.0021 242.242 83.1714C242.242 84.3949 244.02 86.3183 247.925 87.6538C251.554 88.7426 255.333 89.2494 259.122 89.1554C262.835 89.2218 266.536 88.7194 270.097 87.6657C274.151 86.3223 275.996 84.3962 275.996 83.1754C275.93 82.7565 275.777 82.3559 275.548 81.9989C275.319 81.642 275.018 81.3365 274.665 81.1016C273.415 80.1355 272.004 79.3973 270.498 78.9211C266.818 77.7659 262.978 77.206 259.122 77.2626Z" fill="#00D8FF"/>
<path d="M251.633 99.6138C251.018 99.6279 250.411 99.4787 249.872 99.1814C247.984 98.0924 247.33 94.9521 248.123 90.7796C248.996 86.7865 250.51 82.9609 252.605 79.4511C254.57 75.9299 257.086 72.7459 260.058 70.0197C261.367 68.8262 262.877 67.8741 264.519 67.2076C265.113 66.9294 265.76 66.7852 266.416 66.7852C267.072 66.7852 267.719 66.9294 268.313 67.2076C270.276 68.3388 270.926 71.8034 270.01 76.2501C269.109 80.0266 267.635 83.6427 265.638 86.9722C263.742 90.4518 261.305 93.6081 258.419 96.3232C257.062 97.5635 255.487 98.5419 253.774 99.2091C253.089 99.4636 252.365 99.6004 251.633 99.6138ZM253.971 80.2342C251.972 83.5951 250.522 87.2526 249.673 91.0696C248.944 94.9126 249.644 97.2236 250.662 97.8116C251.716 98.422 254.277 97.8433 257.385 95.1275C260.141 92.5263 262.467 89.505 264.276 86.1759C266.189 82.9928 267.603 79.5356 268.47 75.9245C269.332 71.7388 268.587 69.1759 267.53 68.5669C267.134 68.415 266.71 68.347 266.286 68.3672C265.862 68.3874 265.447 68.4954 265.067 68.6842C263.606 69.2871 262.263 70.1431 261.099 71.2128C258.26 73.8241 255.857 76.8723 253.98 80.2421L253.971 80.2342Z" fill="#00D8FF"/>
<path d="M266.606 99.6312C264.819 99.6312 262.551 98.5501 260.188 96.5185C257.165 93.7675 254.606 90.5457 252.612 86.9777C250.543 83.5162 249.041 79.746 248.163 75.81C247.783 74.0784 247.712 72.2929 247.955 70.5367C248.011 69.8851 248.21 69.2539 248.536 68.6874C248.863 68.1209 249.31 67.6329 249.846 67.2579C251.806 66.1229 255.132 67.2896 258.527 70.3033C261.349 72.9692 263.745 76.0522 265.633 79.4447C267.7 82.8254 269.218 86.513 270.128 90.3698C270.525 92.165 270.587 94.0182 270.309 95.8356C270.243 96.5059 270.033 97.1539 269.693 97.7353C269.353 98.3168 268.891 98.8178 268.339 99.204C267.81 99.4976 267.211 99.6451 266.606 99.6312ZM253.976 86.1841C255.89 89.5939 258.334 92.6774 261.216 95.3189C264.181 97.8698 266.533 98.4183 267.544 97.8237C268.599 97.2107 269.377 94.7085 268.575 90.6598C267.697 86.9776 266.242 83.4576 264.263 80.2304C262.462 76.9835 260.175 74.0314 257.48 71.4766C254.285 68.6396 251.693 68.0054 250.637 68.6172C250.308 68.8846 250.037 69.2174 249.843 69.5946C249.649 69.9717 249.536 70.3849 249.509 70.8082C249.3 72.3745 249.368 73.9655 249.711 75.5081C250.555 79.2722 251.996 82.8772 253.977 86.1867L253.976 86.1841Z" fill="#00D8FF"/>
<g clip-path="url(#clip6_10_1011)">
<path d="M554.649 281.782C553.756 282.659 552.624 283.253 551.394 283.486C550.165 283.72 548.894 283.584 547.741 283.096C546.589 282.607 545.608 281.788 544.921 280.741C544.234 279.695 543.874 278.468 543.884 277.217C543.894 275.965 544.276 274.745 544.98 273.71C545.684 272.676 546.679 271.873 547.839 271.403C548.999 270.934 550.273 270.82 551.498 271.074C552.724 271.328 553.846 271.94 554.724 272.833L556.215 271.342C555.042 270.154 553.544 269.341 551.909 269.006C550.275 268.67 548.577 268.826 547.032 269.455C545.486 270.084 544.162 271.157 543.226 272.539C542.29 273.921 541.785 275.549 541.775 277.217C541.764 278.886 542.249 280.52 543.167 281.914C544.085 283.307 545.396 284.397 546.934 285.045C548.472 285.693 550.167 285.871 551.806 285.556C553.444 285.241 554.953 284.447 556.14 283.274L554.649 281.782Z" fill="#00AFFF"/>
<path d="M557.595 274.106H555.485V276.215H553.376V278.325H555.485V280.434H557.595V278.325H559.704V276.215H557.595V274.106Z" fill="#00AFFF"/>
<path d="M562.868 274.106H564.977V276.215H567.087V278.325H564.977V280.434H562.868V278.325H560.759V276.215H562.868V274.106Z" fill="#00AFFF"/>
</g>
<g clip-path="url(#clip7_10_1011)">
<path d="M485.85 84.217C484.543 84.185 483.531 84.3132 482.681 84.6655C482.436 84.7616 482.044 84.7617 482.012 85.0661C482.142 85.1942 482.159 85.4025 482.273 85.5787C482.469 85.899 482.812 86.3315 483.122 86.5559C483.465 86.8122 483.808 87.0684 484.167 87.2927C484.804 87.6772 485.523 87.9014 486.144 88.2859C486.503 88.51 486.862 88.7986 487.222 89.0388C487.401 89.1668 487.515 89.3753 487.744 89.4553V89.4073C487.63 89.263 487.597 89.0548 487.483 88.8946C487.32 88.7344 487.156 88.5902 486.993 88.43C486.519 87.8054 485.931 87.2607 485.294 86.8122C484.772 86.4597 483.628 85.9792 483.416 85.3864C483.416 85.3864 483.4 85.3705 483.384 85.3545C483.743 85.3224 484.167 85.1942 484.51 85.0981C485.066 84.9538 485.572 84.986 486.144 84.8418C486.405 84.7777 486.666 84.6976 486.928 84.6175V84.4734C486.634 84.185 486.421 83.8006 486.111 83.5282C485.278 82.8232 484.363 82.1345 483.416 81.5578C482.91 81.2374 482.256 81.0292 481.718 80.7569C481.522 80.6607 481.195 80.6127 481.081 80.4525C480.787 80.1001 480.623 79.6356 480.411 79.2191C479.938 78.3379 479.48 77.3608 479.072 76.4318C478.778 75.807 478.598 75.1821 478.239 74.6056C476.557 71.8823 474.727 70.2323 471.918 68.6143C471.314 68.2779 470.595 68.1337 469.828 67.9576C469.42 67.9415 469.011 67.9095 468.603 67.8934C468.342 67.7813 468.08 67.477 467.852 67.3328C466.921 66.756 464.52 65.5066 463.834 67.1566C463.393 68.1978 464.487 69.223 464.863 69.7518C465.141 70.1201 465.5 70.5366 465.696 70.9531C465.81 71.2253 465.843 71.5139 465.957 71.8022C466.219 72.5068 466.463 73.2919 466.806 73.9488C466.986 74.2851 467.182 74.6375 467.411 74.9419C467.541 75.118 467.77 75.1982 467.819 75.4865C467.591 75.807 467.574 76.2876 467.443 76.688C466.855 78.4982 467.084 80.7409 467.917 82.0704C468.178 82.4708 468.799 83.3521 469.632 83.0156C470.367 82.7273 470.204 81.8142 470.416 81.0132C470.465 80.8208 470.432 80.6928 470.53 80.5646V80.5968C470.759 81.0452 470.987 81.4778 471.2 81.9263C471.706 82.7112 472.588 83.5282 473.323 84.073C473.715 84.3611 474.025 84.8578 474.515 85.034V84.9859H474.482C474.384 84.8417 474.237 84.7777 474.107 84.6655C473.813 84.3773 473.486 84.0248 473.258 83.7044C472.572 82.8072 471.967 81.8141 471.428 80.7888C471.167 80.2924 470.938 79.7477 470.726 79.2511C470.628 79.0587 470.628 78.7705 470.465 78.6744C470.22 79.0268 469.861 79.3312 469.681 79.7637C469.371 80.4525 469.338 81.3015 469.224 82.1825C469.158 82.1987 469.191 82.1825 469.158 82.2147C468.636 82.0864 468.456 81.5578 468.26 81.1093C467.77 79.972 467.688 78.1457 468.113 76.8322C468.227 76.4958 468.717 75.4386 468.521 75.1181C468.423 74.8137 468.097 74.6375 467.917 74.3973C467.705 74.0929 467.476 73.7086 467.329 73.372C466.937 72.475 466.741 71.4817 466.316 70.5847C466.12 70.1681 465.778 69.7357 465.5 69.3512C465.19 68.9188 464.847 68.6143 464.602 68.1017C464.52 67.9255 464.406 67.6372 464.536 67.4449C464.569 67.3167 464.634 67.2688 464.765 67.2367C464.977 67.0604 465.582 67.2847 465.794 67.3808C466.398 67.621 466.904 67.8454 467.411 68.1818C467.639 68.342 467.884 68.6464 468.178 68.7265H468.521C469.044 68.8386 469.632 68.7585 470.122 68.9026C470.987 69.1749 471.771 69.5754 472.474 70.008C474.613 71.3376 476.377 73.2278 477.569 75.4865C477.765 75.8548 477.847 76.1915 478.027 76.5758C478.37 77.3608 478.794 78.1618 479.137 78.9307C479.48 79.6835 479.807 80.4525 480.297 81.0773C480.542 81.4136 481.522 81.5899 481.963 81.7661C482.289 81.9102 482.796 82.0385 483.09 82.2146C483.645 82.5509 484.2 82.9356 484.723 83.3039C484.984 83.4961 485.801 83.8966 485.85 84.217Z" fill="#00546B"/>
<path d="M469.191 70.2964C468.913 70.2964 468.717 70.3286 468.521 70.3766V70.4086H468.554C468.685 70.665 468.913 70.8412 469.076 71.0654C469.207 71.3216 469.321 71.5781 469.452 71.8344C469.468 71.8183 469.485 71.8024 469.485 71.8024C469.714 71.6421 469.828 71.3858 469.828 71.0013C469.73 70.8893 469.713 70.7771 469.632 70.665C469.534 70.5047 469.321 70.4246 469.191 70.2964Z" fill="#00546B"/>
</g>
<path d="M241.335 411.71H243.75C243.802 411.71 243.852 411.692 243.892 411.658C243.932 411.624 243.958 411.577 243.965 411.525L244.503 408.726H246.38C247.165 408.746 247.949 408.642 248.702 408.418C249.313 408.217 249.87 407.88 250.333 407.434C250.748 407.06 251.097 406.618 251.363 406.127C251.626 405.646 251.813 405.127 251.917 404.589C252.08 404.024 252.108 403.429 251.999 402.852C251.889 402.275 251.645 401.732 251.286 401.266C250.87 400.844 250.367 400.518 249.812 400.31C249.257 400.103 248.663 400.02 248.072 400.067H243.457C243.402 400.069 243.349 400.09 243.307 400.127C243.265 400.163 243.237 400.212 243.227 400.267L241.104 411.433C241.081 411.498 241.081 411.568 241.104 411.633C241.134 411.664 241.17 411.686 241.21 411.7C241.25 411.713 241.293 411.717 241.335 411.71ZM245.718 402.235H247.256C247.549 402.196 247.847 402.215 248.132 402.292C248.417 402.368 248.684 402.501 248.918 402.681C249.179 402.958 249.225 403.481 249.087 404.219C249.01 404.88 248.699 405.491 248.21 405.942C247.601 406.328 246.883 406.506 246.164 406.45H244.934L245.718 402.235ZM260.791 400.774C259.959 400.162 258.928 399.882 257.9 399.99H256.07L256.577 397.283C256.592 397.252 256.6 397.217 256.6 397.183C256.6 397.148 256.592 397.114 256.577 397.083C256.522 397.063 256.463 397.063 256.408 397.083H253.993C253.941 397.082 253.89 397.101 253.851 397.135C253.811 397.169 253.785 397.216 253.778 397.267L251.655 408.449C251.64 408.478 251.633 408.509 251.633 408.541C251.633 408.574 251.64 408.605 251.655 408.634C251.673 408.662 251.698 408.685 251.728 408.702C251.758 408.718 251.791 408.726 251.824 408.726H254.193C254.248 408.726 254.3 408.706 254.34 408.668C254.38 408.631 254.405 408.58 254.408 408.526L255.593 402.266H257.3C257.992 402.266 258.238 402.42 258.315 402.512C258.378 402.663 258.41 402.825 258.41 402.989C258.41 403.153 258.378 403.315 258.315 403.466L257.377 408.449C257.362 408.478 257.354 408.509 257.354 408.541C257.354 408.574 257.362 408.605 257.377 408.634C257.396 408.661 257.421 408.684 257.451 408.7C257.48 408.716 257.513 408.725 257.546 408.726H259.945C260.001 408.724 260.054 408.702 260.096 408.666C260.137 408.63 260.166 408.581 260.176 408.526L261.161 403.297C261.319 402.88 261.369 402.429 261.304 401.987C261.24 401.546 261.063 401.128 260.791 400.774ZM267.743 399.99H262.929C262.901 399.988 262.873 399.991 262.846 400C262.819 400.009 262.794 400.023 262.772 400.042C262.751 400.06 262.733 400.083 262.721 400.108C262.708 400.134 262.701 400.161 262.699 400.19L260.453 411.433C260.439 411.464 260.432 411.499 260.432 411.533C260.432 411.567 260.439 411.601 260.453 411.633C260.474 411.658 260.5 411.677 260.529 411.691C260.558 411.704 260.59 411.711 260.622 411.71H263.129C263.184 411.714 263.238 411.698 263.281 411.663C263.324 411.629 263.352 411.58 263.36 411.525L263.929 408.726H265.882C266.693 408.744 267.502 408.64 268.282 408.418C268.953 408.232 269.574 407.895 270.097 407.434C270.526 407.061 270.89 406.62 271.173 406.127C271.442 405.647 271.634 405.128 271.742 404.589C271.91 404.024 271.939 403.427 271.826 402.848C271.714 402.27 271.464 401.727 271.096 401.266C270.662 400.826 270.137 400.484 269.559 400.264C268.98 400.044 268.361 399.95 267.743 399.99ZM268.697 404.25C268.605 404.916 268.278 405.527 267.774 405.973C267.143 406.36 266.405 406.538 265.667 406.48H264.437L265.267 402.235H266.805C267.42 402.16 268.041 402.319 268.543 402.681C268.789 402.958 268.789 403.481 268.697 404.25Z" fill="#5282FF"/>
<g clip-path="url(#clip8_10_1011)">
<path d="M155.777 425.829L173.093 419.746L190.876 425.721L187.997 448.31L173.093 456.448L158.423 448.418L155.777 425.829Z" fill="#E23237"/>
<path d="M190.876 425.721L173.094 419.746V456.448L187.997 448.324L190.876 425.721Z" fill="#B52E31"/>
<path d="M173.121 424.031L162.331 447.701L166.362 447.634L168.528 442.294H178.208L180.579 447.701L184.432 447.769L173.121 424.031ZM173.148 431.615L176.795 439.131H169.94L173.148 431.615Z" fill="white"/>
</g>
<g clip-path="url(#clip9_10_1011)">
<path d="M173.487 42.4214C173.487 42.4214 172.508 43.0063 174.184 43.2042C176.213 43.4421 177.251 43.408 179.487 42.973C179.487 42.973 180.075 43.3518 180.896 43.6801C175.883 45.8883 169.549 43.5521 173.487 42.4214Z" fill="#5382A1"/>
<path d="M172.874 39.5396C172.874 39.5396 171.777 40.3746 173.453 40.5528C175.621 40.7826 177.333 40.8014 180.296 40.2152C180.296 40.2152 180.706 40.6421 181.35 40.8756C175.288 42.6972 168.536 41.0192 172.874 39.5396Z" fill="#5382A1"/>
<path d="M178.04 34.6514C179.275 36.113 177.715 37.4283 177.715 37.4283C177.715 37.4283 180.852 35.7642 179.411 33.6804C178.066 31.7371 177.034 30.7715 182.62 27.4424C182.62 27.4424 173.852 29.6927 178.04 34.6514" fill="#E76F00"/>
<path d="M184.671 44.5527C184.671 44.5527 185.395 45.1659 183.873 45.6404C180.979 46.5413 171.828 46.8134 169.285 45.6763C168.372 45.2678 170.085 44.7008 170.624 44.5818C171.187 44.4565 171.508 44.4799 171.508 44.4799C170.492 43.7442 164.939 45.9245 168.687 46.5489C178.91 48.2525 187.322 45.7818 184.671 44.5527Z" fill="#5382A1"/>
<path d="M173.958 36.5541C173.958 36.5541 169.303 37.6903 172.309 38.1028C173.579 38.2775 176.109 38.238 178.467 38.035C180.393 37.8681 182.327 37.513 182.327 37.513C182.327 37.513 181.648 37.8119 181.157 38.1568C176.43 39.4343 167.298 38.84 169.927 37.5332C172.15 36.4288 173.958 36.5541 173.958 36.5541" fill="#5382A1"/>
<path d="M182.308 41.3506C187.114 38.7846 184.892 36.3188 183.341 36.651C182.961 36.7322 182.791 36.8027 182.791 36.8027C182.791 36.8027 182.933 36.5756 183.202 36.4773C186.27 35.3689 188.629 39.7462 182.212 41.4799C182.212 41.48 182.286 41.4117 182.308 41.3506Z" fill="#5382A1"/>
<path d="M179.411 22.067C179.411 22.067 182.073 24.8027 176.887 29.0093C172.729 32.3838 175.939 34.3078 176.885 36.5061C174.458 34.2558 172.677 32.2748 173.872 30.4311C175.626 27.7245 180.485 26.4123 179.411 22.0669" fill="#E76F00"/>
<path d="M174.43 48.3037C179.042 48.6071 186.125 48.1354 186.293 45.8926C186.293 45.8926 185.971 46.7429 182.481 47.418C178.544 48.1793 173.689 48.0905 170.809 47.6025C170.809 47.6025 171.399 48.104 174.43 48.3037" fill="#5382A1"/>
</g>
<g clip-path="url(#clip10_10_1011)">
<path d="M79.8052 213.223L77.5481 213.586L75.4891 214.48L73.7402 215.57L72.0759 217.581L71.1358 218.568L70.2265 218.899L69.9861 218.317L70.4066 217.716L70.5011 216.869L70.7826 216.88L71.0903 217.158L71.0073 216.294L70.6661 216.068L70.6768 215.739L69.8687 216.191L69.137 217.046L68.9844 217.811L69.2974 218.422L69.5892 219.462L70.1827 219.74L70.8069 219.71L71.399 219.369L71.0041 221.353L71.399 223.56L70.9643 224.579L69.5403 226.099L69.7935 227.007L70.4681 228.059L71.7398 228.945L72.4144 229.037L73.1644 229.062L72.6965 230.964L74.4172 231.663L76.5609 231.942L77.2943 231.467L77.3508 230.182L78.1689 228.841L78.2254 227.779L80.1999 227.919L82.0334 227.751L80.1999 228.841L80.5103 230.154L81.6667 231.942L82.795 232.417L83.6977 232.054L84.0643 231.327L85.9543 229.903L86.321 230.21L89.2829 230.322L89.8752 229.847L89.9315 229.008L89.7343 228.645L89.5931 226.382L88.6059 224.426L88.7752 223.56L89.3675 223.868L91.0318 225.404L91.8498 225.46L92.7524 225.097L93.6552 224.426L94.1064 222.974L96.7581 223.141L98.3659 222.527L99.6634 221.325L100.594 219.593L100.82 217.553L100.622 215.178L100.115 213.055L99.607 212.385L98.9019 212.161L97.6606 213.502L96.5323 213.893L95.545 212.273L94.5578 211.379L94.0218 211.044L91.8779 209.283L90.1573 208.361L88.4365 208.222L86.4339 208.557L84.6849 209.199L83.472 210.177L82.513 211.323L81.5258 211.602L79.8049 213.223" fill="#FFFF00"/>
<path d="M73.2601 218.265C71.3272 220.498 71.7566 223.207 72.2924 225.86C72.0065 225.145 71.7206 224.429 71.4346 223.714L71.1185 221.746C71.1486 221.075 71.1786 220.405 71.2089 219.734L72.0214 217.811L73.2403 216.022L75.1365 214.458L77.2131 213.608L79.6512 213.295L77.3938 215.844C75.5812 216.426 74.5125 216.818 73.26 218.265" fill="#FFFFCC"/>
<path d="M82.3599 211.461C81.0163 212.76 80.2822 213.74 79.4269 215.26C78.8153 216.348 78.1292 217.395 77.4859 218.468C77.1607 219.011 77.13 219.466 77.0327 220.092L76.0846 218.974C76.2353 218.527 76.3857 218.08 76.5361 217.632L78.0711 214.905L81.3218 211.73C81.6678 211.64 82.0139 211.551 82.3599 211.461Z" fill="#FFFFCC"/>
<path d="M88.9965 208.242C87.9201 208.641 86.1328 208.773 86.0088 209.996C85.9205 210.865 86.0749 211.302 86.6038 212.222C85.2976 210.883 84.9746 211.09 82.4503 211.506L83.5338 209.986L85.4299 208.823L87.868 208.286L88.9967 208.242" fill="#FFFFCC"/>
<path d="M91.9665 224.792C92.3248 225.011 92.317 225.17 92.2571 225.32C92.5397 225.208 92.8224 225.096 93.105 224.984L93.6545 224.254L94.0621 223.213L93.541 222.825L91.2637 223.113C91.2075 223.265 91.1508 223.417 91.0942 223.569C91.1103 223.784 91.1267 224.001 91.1427 224.216C91.2154 224.344 91.2882 224.472 91.361 224.6C91.474 224.656 91.5868 224.712 91.7 224.768C91.789 224.776 91.8777 224.784 91.9665 224.792Z" fill="#CCCC00"/>
<path d="M91.7545 220.935C90.6129 221.261 90.6218 221.351 90.2848 222.473C90.7297 221.766 91.0592 221.409 91.7545 220.935Z" fill="#CCCC00"/>
<path d="M99.3445 212.541C99.1416 212.634 98.9438 212.679 98.8171 212.862C98.544 213.258 98.31 213.591 97.8584 213.869C97.6309 214.009 97.3957 214.1 97.1546 214.174C96.9545 214.236 96.8342 214.181 96.6639 214.302C96.7651 214.319 96.8661 214.337 96.9671 214.354H97.6353L98.4591 213.851L98.9436 213.347L99.3445 212.541Z" fill="#CCCC00"/>
<path d="M81.1613 215.05C80.7123 216.267 80.3198 217.311 79.6396 218.413C80.5112 217.482 81.0397 216.692 81.539 215.64C81.7331 215.231 81.7697 214.752 82.3099 214.93C82.3342 215.338 82.4212 215.746 82.4454 216.154C82.7373 214.082 83.5604 213.215 85.4738 212.411L83.8506 212.603L82.3242 212.939L81.5732 214.018L81.1613 215.05Z" fill="#CCCC00"/>
<path d="M84.868 215.002C85.2806 216.925 85.8747 218.772 86.1328 220.726C86.3004 221.995 86.3186 222.605 85.6738 223.701C84.9688 223.656 84.5312 223.734 83.8493 223.956C81.135 224.837 79.5781 226.133 77.7493 223.522L79.5009 224.34C79.9171 224.258 80.3333 224.178 80.7494 224.096C81.4844 223.673 82.2192 223.249 82.9542 222.825L84.6742 222.489L85.2315 220.185L84.8195 217.138C84.8035 216.658 84.7873 216.178 84.7711 215.698C84.8035 215.466 84.8359 215.234 84.868 215.002" fill="#CCCC00"/>
<path d="M89.5437 226.904C89.3157 228.467 90.0688 229.307 89.7569 229.739C89.6687 229.861 89.549 230.074 89.4155 230.133C88.9383 230.341 88.2823 230.093 88.2356 230.216H86.6608L86.031 229.952L87 228.824C87.3149 228.144 87.63 227.464 87.9447 226.784L88.5504 224.721H88.8654L89.5437 226.904Z" fill="#CCCC00"/>
<path d="M86.897 222.361C87.0249 223.07 87.2471 223.239 87.5841 223.926C87.3598 225.046 86.9995 226.379 86.5658 227.368C86.383 227.785 86.2355 228.015 85.9128 228.337C85.3685 228.881 84.8183 229.355 84.2011 229.827C83.7566 230.166 83.4465 229.996 82.8982 229.92C82.665 230.338 82.6007 230.571 82.1715 230.783C81.5116 231.11 80.921 230.406 80.403 229.991C80.777 230.57 81.151 231.149 81.5247 231.727C81.7832 231.967 82.0417 232.207 82.3001 232.447L82.9543 232.543L83.8262 232.015C83.9798 231.727 84.1331 231.439 84.2866 231.151C84.6096 230.911 84.9328 230.671 85.2556 230.431C85.6514 230.095 86.0471 229.759 86.4428 229.423L87.1938 228.368L87.872 227.12C88.1629 226.256 88.4536 225.392 88.7444 224.528C88.7685 224.2 88.7926 223.873 88.817 223.544C88.4536 223.385 88.0903 223.224 87.7267 223.065C87.4603 222.817 87.1635 222.609 86.897 222.361Z" fill="#CCCC00"/>
<path d="M78.2057 227.36C79.4284 227.36 80.7198 227.292 81.8398 226.784C82.1566 226.313 82.4695 225.928 82.8573 225.512C82.5044 226.172 82.3937 226.546 82.3001 227.288L81.9367 227.816C81.0161 227.84 80.0955 227.864 79.1749 227.888C78.8759 227.856 78.5772 227.824 78.2784 227.792C78.2461 227.759 78.2139 227.728 78.1815 227.696C78.1898 227.584 78.1978 227.472 78.2057 227.36Z" fill="#CCCC00"/>
<path d="M78.0363 226.52L77.9412 225.668C77.7324 226.914 77.7826 227.748 77.2038 228.864C76.7715 229.36 76.2393 229.811 75.6296 230.053C75.6812 230.359 75.6966 230.55 75.6666 230.774C75.5592 231.581 73.9301 231.225 73.2598 231.192L76.4856 232.015L77.2124 231.727C77.2933 231.263 77.3741 230.799 77.4547 230.335L78.133 229.088L78.2541 228.32L78.0361 226.52" fill="#CCCC00"/>
<path d="M76.219 219.489C76.1853 220.095 76.1457 220.347 76.4154 220.882C76.7582 221.562 77.179 222.201 77.5514 222.873L77.6726 221.529C77.1882 220.849 76.7036 220.169 76.2191 219.489" fill="#CCCC00"/>
<path d="M71.2459 224.064C71.1409 224.285 71.0362 224.506 70.9312 224.727C71.2198 225.69 71.4765 226.3 72.0261 227.142C71.9303 227.482 71.8587 227.631 71.6385 227.909C71.1548 227.836 70.7253 227.814 70.2351 227.816C70.7762 228.232 71.3172 228.648 71.8583 229.064C72.1248 229.015 72.3914 228.967 72.6578 228.92L73.4574 228.128L72.3187 226.376C71.9609 225.605 71.6034 224.835 71.2459 224.064Z" fill="#CCCC00"/>
<path d="M99.348 212.223C99.6775 213.691 100.103 215.046 100.063 216.55C100.015 218.395 99.6517 220.726 97.9256 221.838C95.9927 223.084 93.7236 222.495 91.6029 221.961L94.1952 223.017C95.0027 223.057 95.8104 223.097 96.6179 223.137C97.1671 222.977 97.7163 222.817 98.2652 222.657C98.6932 222.305 99.1213 221.953 99.5493 221.601L100.518 219.586L100.882 217.258C100.785 216.498 100.688 215.738 100.591 214.978L100.058 212.723C99.8214 212.556 99.5848 212.389 99.348 212.223Z" fill="#CCCC00"/>
<path d="M70.5024 216.599C69.625 217.164 69.2802 217.413 69.3765 218.461L69.6387 219.403L70.0104 219.652L70.4696 219.804L71.3005 219.609C71.4427 219.172 71.5848 218.736 71.7268 218.299L70.5462 218.873H70.2729C70.1709 218.718 70.0689 218.562 69.9668 218.407L70.3385 217.866L70.5353 216.837C70.6191 216.862 70.703 216.888 70.7867 216.913C70.8888 216.992 70.9907 217.072 71.0928 217.151L71.049 216.61L70.8414 216.263C70.7722 216.205 70.703 216.148 70.6338 216.09L70.5024 216.599Z" fill="#CCCC00"/>
<path d="M90.1895 208.337C90.9684 209.054 91.9242 209.676 92.5471 210.552C92.7881 210.891 93.0559 211.064 92.5431 211.543C93.085 211.389 93.2865 211.406 93.7204 211.458C94.5097 211.553 95.2495 212.664 95.2966 213.46C95.2873 213.535 95.0774 213.704 94.4671 213.871C94.4551 213.894 94.1226 213.826 94.1309 213.848C94.1944 214.02 94.279 214.046 94.4085 214.127C94.4365 214.318 94.4546 214.613 94.5861 214.822C94.9701 214.815 95.3454 214.856 95.7214 214.93C95.8479 215.138 95.829 215.346 95.8183 215.554L96.2544 215.482C96.2142 215.154 96.1737 214.826 96.1334 214.498C96.2625 214.282 96.3916 214.066 96.521 213.85L95.9637 212.603C95.6084 212.267 95.2532 211.931 94.8977 211.595L94.7952 211.59C94.3955 211.347 93.9959 211.104 93.5963 210.861L91.6411 209.276L90.1895 208.337Z" fill="#CCCC00"/>
<path d="M91.5015 214.25C91.4604 214.321 91.3984 214.435 91.3189 214.514C91.6433 214.818 91.8034 215.021 91.9191 215.451C91.5522 215.631 91.1857 215.812 90.819 215.992L89.8881 216.876C89.4796 216.658 89.3779 216.491 89.1802 216.076C88.9499 216.136 88.7321 216.194 88.542 216.125C88.6626 216.126 88.7366 216.096 88.8572 216.022L89.4495 215.413C89.7982 215.151 90.1469 214.889 90.4957 214.628L91.1805 214.407C91.2677 214.371 91.4143 214.286 91.5015 214.25Z" fill="#CCCC00"/>
<path d="M92.5138 215.334C91.347 215.956 90.2297 216.582 89.6332 217.763C89.6332 216.263 91.1536 215.603 92.5136 215.333" fill="#CCCC00"/>
<path d="M89.4015 212.383C88.5352 212.968 87.9226 214.149 87.9996 215.3C87.7174 214.303 87.8173 213.362 88.6837 212.674C88.8301 212.603 88.9761 212.533 89.1224 212.463C89.2154 212.436 89.3083 212.41 89.4015 212.383Z" fill="#CCCC00"/>
<path d="M101.06 215.1C100.902 214.118 100.642 213.166 100.28 212.481C100.237 212.397 100.17 212.312 100.087 212.231C99.9074 212.056 99.6416 211.89 99.367 211.796C99.0761 211.697 98.7693 211.677 98.5257 211.803C98.4625 211.836 98.4036 211.878 98.3513 211.931C98.1936 212.089 98.0605 212.282 97.9273 212.474C97.7791 212.689 97.63 212.905 97.4517 213.055C97.245 213.23 96.9864 213.337 96.7424 213.434C96.6397 213.187 96.5162 212.949 96.3733 212.723C96.2065 212.46 96.0166 212.213 95.8076 211.966C95.6547 211.785 95.4814 211.621 95.291 211.478C95.1108 211.342 94.9263 211.227 94.7115 211.094C94.1356 210.737 93.6451 210.311 93.1449 209.876C92.9176 209.678 92.688 209.479 92.4634 209.296C91.2722 208.323 90.161 207.851 88.9727 207.777C87.7925 207.703 86.5462 208.025 85.0748 208.638C84.3646 208.934 83.8372 209.284 83.3778 209.705C82.9389 210.107 82.5664 210.57 82.1568 211.11C81.9186 211.127 81.7075 211.162 81.492 211.248C81.2545 211.342 81.0155 211.494 80.729 211.744C80.5297 211.919 80.3344 212.097 80.1434 212.281C79.9684 212.449 79.7965 212.62 79.6277 212.794C78.2882 213.007 77.1968 213.243 76.2193 213.618C75.2197 214.001 74.3385 214.529 73.4336 215.324C73.0773 215.635 72.7524 215.981 72.4637 216.355C72.1884 216.712 71.9528 217.088 71.7461 217.484C71.5651 217.682 71.3837 217.882 71.1874 218.057C70.996 218.228 70.7919 218.372 70.5632 218.459L70.5634 218.459C70.4304 218.51 70.3754 218.54 70.3695 218.538C70.3628 218.534 70.3591 218.514 70.3498 218.478C70.6781 218.167 70.7298 217.711 70.7601 217.259C70.7995 217.305 70.8373 217.363 70.8766 217.423C70.92 217.489 70.9644 217.558 71.0177 217.624L71.2406 217.903L71.3189 217.555C71.3846 217.264 71.4339 216.876 71.3572 216.54C71.3077 216.322 71.2055 216.128 71.0274 215.99C71.0444 215.946 71.0605 215.905 71.0764 215.865C71.1323 215.723 71.1899 215.578 71.2387 215.441L71.3354 215.168L71.0479 215.218C70.6653 215.284 69.8433 215.731 69.2643 216.326C69.0493 216.547 68.8645 216.791 68.7432 217.048C68.617 217.314 68.5605 217.593 68.6094 217.873C68.652 218.117 68.7754 218.357 68.9994 218.582C69.0403 218.746 69.078 218.887 69.1183 219.015C69.1645 219.16 69.2141 219.29 69.2763 219.418C69.4448 219.765 69.7134 219.977 70.0243 220.075C70.2741 220.155 70.5505 220.159 70.8215 220.1C70.7664 220.42 70.7333 220.743 70.7222 221.067C70.705 221.52 70.7218 222.02 70.7721 222.601C70.7831 222.728 70.7998 222.868 70.8212 223.021C70.8398 223.151 70.8619 223.278 70.8858 223.405C70.8352 223.542 70.7842 223.679 70.7334 223.816L70.4968 224.454L69.9764 224.964C69.8144 225.123 69.6524 225.282 69.4906 225.441C69.4773 225.454 69.4226 225.506 69.373 225.553C69.045 225.866 68.98 225.928 69.0732 226.478C69.1329 226.831 69.2489 227.171 69.417 227.487C69.578 227.791 69.7942 228.087 70.0716 228.362C70.4176 228.706 70.9849 229.133 71.5788 229.356C71.9182 229.484 72.268 229.546 72.5964 229.494C72.5796 229.544 72.5634 229.594 72.5449 229.644C72.4929 229.787 72.4352 229.928 72.3718 230.066C71.9689 230.941 72.3825 231.398 73.0262 231.688C73.3476 231.833 73.7297 231.932 74.0847 232.024C74.1574 232.042 74.2301 232.061 74.3216 232.086C74.7422 232.198 75.4691 232.405 76.133 232.447C76.8576 232.492 77.5112 232.344 77.6863 231.7C77.7555 231.444 77.7959 231.249 77.8122 231.057C77.8273 230.879 77.8216 230.7 77.8005 230.478C78.0071 230.024 78.0947 229.897 78.2458 229.678C78.2753 229.635 78.3111 229.583 78.3219 229.567C78.4839 229.329 78.5597 229.16 78.5873 228.97C78.6139 228.787 78.5913 228.604 78.5579 228.325C78.5547 228.298 78.5499 228.26 78.5428 228.208C78.9601 228.262 79.3802 228.291 79.8009 228.294C80.012 228.295 80.223 228.289 80.4339 228.278C80.38 228.305 80.3272 228.332 80.2694 228.362L80.1909 228.402C79.6313 228.687 79.608 229.227 79.7832 229.782C79.9411 230.283 80.2661 230.794 80.47 231.105C80.8986 231.76 81.3076 232.313 81.8036 232.614C82.3233 232.93 82.9172 232.967 83.6838 232.556C84.0737 232.347 84.1967 232.134 84.3623 231.846C84.413 231.759 84.4689 231.663 84.5312 231.569C84.6923 231.463 85.0933 231.136 85.4869 230.813C85.6209 230.704 85.7548 230.594 85.9059 230.472C86.01 230.548 86.1356 230.601 86.2875 230.637C86.4848 230.684 86.7197 230.705 87.0012 230.725C87.2119 230.74 87.899 230.739 88.3429 230.739C88.4799 230.739 88.5938 230.739 88.662 230.74C89.1203 230.742 89.4902 230.719 89.7697 230.562C90.0676 230.394 90.2442 230.098 90.2828 229.567C90.2996 229.331 90.3028 229.185 90.2696 229.037C90.2388 228.898 90.1785 228.771 90.0749 228.587C90.0686 228.357 90.0624 228.128 90.0563 227.898C90.0499 227.655 90.043 227.411 90.0366 227.167C90.0287 226.88 89.9968 226.647 89.9379 226.417C89.8797 226.189 89.7963 225.97 89.6848 225.707C89.6154 225.541 89.5498 225.374 89.4881 225.205L89.3273 225.263L89.352 225.254L89.4881 225.205V225.205C89.3922 224.949 89.2977 224.699 89.1654 224.433C89.1739 224.381 89.1826 224.326 89.191 224.267L89.4465 224.511L89.8232 224.87C90.1104 225.144 90.3731 225.393 90.6816 225.574C91.0006 225.76 91.3593 225.868 91.8239 225.846C92.3102 225.824 92.8307 225.621 93.2591 225.308C93.6736 225.005 94.0062 224.596 94.145 224.144L94.2654 223.751L94.3615 223.438C95.0435 223.553 95.7755 223.59 96.4826 223.516C97.1648 223.445 97.824 223.273 98.3924 222.973C99.2281 222.531 99.8546 221.881 100.305 221.108H100.305C100.808 220.245 101.09 219.228 101.197 218.181C101.283 217.342 101.236 216.2 101.06 215.1ZM92.2233 222.155C91.8303 222.024 91.557 221.833 91.2117 221.617C91.3057 222.037 91.3484 222.481 91.2233 222.9C91.0247 223.564 90.7039 224.652 91.615 224.852C91.9618 224.928 92.1191 224.918 92.6085 224.667C92.2124 224.756 92.0126 224.735 91.7403 224.684C91.4935 224.639 91.3627 224.484 91.2937 224.301C91.38 224.363 91.5205 224.396 91.7609 224.454C92.4363 224.615 93.0798 224.293 93.2057 223.829C93.2789 223.558 93.2666 223.416 93.4222 223.046C93.5619 223.089 93.7063 223.128 93.8546 223.163L93.6036 223.974C93.3866 224.675 92.5408 225.241 91.7941 225.228C91.1038 225.216 90.666 224.788 90.1894 224.368C89.8611 224.078 89.5452 223.802 89.2321 223.527C88.3729 223.259 87.6843 222.945 86.8869 222.36C87.4544 223.021 87.8392 223.387 88.6306 223.715C88.5156 224.878 88.1075 225.726 87.7597 226.839C87.6021 227.342 86.3594 229.358 86.0149 229.555C85.7693 229.695 84.2309 230.978 83.9417 231.148C83.7261 231.431 83.5369 231.823 83.2128 231.992C82.2255 232.51 81.591 231.519 81.0597 230.683C80.8178 230.302 80.1459 229.205 80.7316 228.897C81.2853 228.607 81.5954 228.399 82.1604 228.032C82.2435 228.182 82.3857 228.326 82.4785 228.476L82.417 227.985C82.3798 227.688 82.3814 227.447 82.4051 227.149C82.4282 226.86 82.4511 226.571 82.474 226.282C82.3889 226.576 82.2191 226.869 82.1343 227.163C82.1004 227.281 82.0723 227.376 82.0561 227.464C80.7884 227.72 79.5299 227.736 78.262 227.512C78.1811 227.047 78.0826 226.563 77.9999 226.215C77.9749 226.604 77.991 227.68 77.989 228.282C77.9874 228.748 77.9677 228.908 77.7247 229.305C77.4973 229.676 77.4011 229.761 77.0826 230.389C77.1092 230.785 77.1096 231.047 77.0034 231.422C76.8268 232.048 75.0441 231.563 74.574 231.436C73.9949 231.279 72.7978 231.045 73.0988 230.281C73.3637 229.608 73.5317 228.898 73.6612 227.957C72.6002 226.443 71.6137 224.369 71.4243 222.531C71.2772 221.103 71.3655 220.225 71.6772 219.352C72.1712 217.969 72.8626 216.771 73.9716 215.807C75.4676 214.507 76.866 213.985 79.0558 213.655C78.5293 214.239 78.0083 214.856 77.4405 215.518C76.8656 216.188 76.5242 216.865 76.1591 217.598C75.6549 218.61 75.6658 218.996 76.3341 219.884C76.9101 220.65 77.221 220.995 77.4726 221.745C77.2649 222.169 77.1893 222.527 77.1196 223.106C77.8247 223.87 78.3489 224.393 79.0336 224.554C79.7053 224.712 80.2661 224.682 80.8672 224.377C82.2018 223.701 83.4367 222.829 84.9422 222.793C85.6388 221.097 85.5683 219.679 85.234 218.039C85.0056 216.918 84.9139 215.857 84.8429 214.714C84.5606 215.891 84.5075 216.925 84.717 218.098C84.9697 219.51 85.166 221.07 84.4635 222.312C83.102 222.415 81.9353 223.235 80.7084 223.865C80.2151 224.118 79.7016 224.143 79.1558 223.994C78.649 223.856 78.3071 223.524 77.7613 222.901C77.7526 222.275 77.8953 221.986 78.1856 221.419C78.652 220.508 79.1667 219.66 79.7316 218.765C79.04 219.591 78.3846 220.282 77.8402 221.114C77.632 220.527 77.3344 220.228 76.8415 219.567C76.3601 218.921 76.3098 218.639 76.6698 217.891C77.0317 217.14 77.3387 216.48 77.9548 215.821C79.0192 214.682 79.9944 213.415 81.1586 212.294C81.7907 211.685 82.0473 211.706 82.8857 211.58C83.6436 211.466 84.3833 211.323 85.1561 211.145C84.4088 211.214 83.6863 211.239 82.9586 211.257L82.936 211.258C83.6521 210.352 84.0675 209.848 85.2301 209.347C88.0929 208.116 89.9119 207.983 92.1606 209.855C92.7435 210.34 93.2525 210.811 93.8433 211.23C93.629 211.248 93.4444 211.286 93.2001 211.381C93.4974 211.325 93.8406 211.381 94.1492 211.436C94.2357 211.492 94.3249 211.546 94.4158 211.6C94.833 211.843 95.0698 211.977 95.352 212.367C95.6501 212.778 95.8988 213.189 96.1177 213.643C95.9743 213.592 95.8538 213.549 95.7465 213.517C95.6269 213.463 95.4955 213.439 95.3642 213.447C95.2328 213.455 95.1055 213.495 94.9936 213.564L94.9763 213.571C94.7455 213.683 94.3879 213.81 94.1488 213.848C94.2708 213.89 94.5407 213.906 94.668 213.856C94.685 213.849 94.7023 213.844 94.7202 213.84C94.6611 213.939 94.6248 214.05 94.6137 214.165C94.5988 214.317 94.6284 214.469 94.699 214.605L94.6997 214.606C94.7212 214.656 94.7513 214.703 94.7843 214.736C94.675 214.776 94.5634 214.822 94.4482 214.871C94.9818 214.791 95.4629 214.777 95.9834 214.845C96.0178 215.007 96.0524 215.18 96.0846 215.355L95.8911 215.37C95.8859 215.37 95.8807 215.371 95.8755 215.371C95.6291 215.176 95.3547 215.209 94.9797 215.294C93.8393 215.551 94.1072 216.185 93.5828 217.14C94.1275 216.481 94.087 215.791 94.9747 215.582C95.1815 215.534 95.3223 215.473 95.4623 215.494C95.2104 215.62 94.9925 215.828 94.906 216.069C94.6624 216.751 94.8136 217.325 94.5459 217.961C94.8774 217.392 94.8975 216.837 95.194 216.238C95.3005 216.023 95.6955 215.679 95.938 215.674L96.1377 215.67C96.1963 216.048 96.2318 216.425 96.2092 216.736C96.1678 217.306 96.0184 218.151 95.9291 218.474C96.2294 218.092 96.3662 217.282 96.4981 216.711C96.6355 216.118 96.6008 215.406 96.4806 214.768C96.3155 213.893 97.2254 214.035 97.7536 213.623C98.1418 213.32 98.4092 212.836 98.7651 212.493C99.1182 212.152 99.6742 212.652 99.813 212.985C100.415 214.428 100.69 216.698 100.531 218.153C100.352 219.785 99.556 221.567 98.1024 222.371C96.2494 223.395 94.0645 222.769 92.2233 222.155ZM89.5903 229.405C89.5299 230.079 89.3032 230.123 88.7061 230.113C88.4348 230.108 87.3546 230.103 87.0804 230.08C86.6931 230.047 86.4756 230.013 86.3572 229.925C86.9658 229.483 87.9997 227.656 88.2014 227.027C88.4146 226.362 88.6479 225.783 88.8215 225.169C88.9014 225.425 88.9643 225.68 89.0805 225.952C89.2744 226.408 89.3693 226.689 89.3832 227.178L89.4271 228.725C89.5939 229.014 89.6198 229.075 89.5903 229.405V229.405ZM71.2764 224.303C71.6628 225.627 72.3211 226.928 73.0509 228.022V228.041C73.005 228.229 72.9522 228.412 72.8413 228.559C72.3195 229.25 70.9928 228.236 70.6086 227.848C70.1888 227.423 69.9079 226.92 69.8409 226.448C69.7922 226.105 69.8396 226.096 70.0818 225.853L71.0617 224.87L71.2764 224.303ZM70.5384 215.976C70.4393 216.187 70.3691 216.346 70.3213 216.511C70.1132 217.222 70.4154 217.858 69.763 218.373C70.0696 218.986 70.0555 219.23 70.7685 218.947C71.0435 218.838 71.2703 218.685 71.4729 218.504C71.3748 218.756 71.2846 219.011 71.2025 219.269C71.1884 219.313 71.175 219.357 71.1621 219.4C70.6522 219.614 69.9815 219.751 69.7248 219.22C69.6003 218.962 69.5298 218.709 69.4389 218.384C68.5992 217.522 69.8545 216.384 70.5384 215.976ZM70.9511 216.889C70.8474 216.786 70.7645 216.717 70.6305 216.732C70.6418 216.645 70.6568 216.561 70.678 216.482C70.6886 216.441 70.7001 216.402 70.7123 216.362C70.8862 216.462 70.9319 216.644 70.9511 216.889V216.889ZM96.131 213.67C96.1627 213.737 96.1939 213.804 96.2245 213.872C96.1992 213.891 96.1751 213.91 96.1526 213.93C96.1112 213.835 96.0515 213.748 95.9768 213.675C96.0268 213.673 96.0782 213.672 96.1312 213.67H96.131ZM71.8873 217.582L71.8872 217.582V217.582H71.8873ZM78.3426 228.011H78.3429H78.3426ZM85.9112 230.249H85.9111H85.9112ZM88.9872 224.458H88.9875L88.9873 224.458L88.9872 224.458ZM70.6251 218.618H70.625L70.6193 218.603L70.625 218.618L70.6251 218.618ZM100.154 221.022L100.158 221.024L100.154 221.022Z" fill="black"/>
<path d="M67.662 218.411C67.7957 216.912 68.0898 216.265 69.1647 215.137C67.8164 216.078 67.4799 216.506 67.662 218.411" fill="black"/>
<path d="M67.3142 217.187C67.4626 216.512 67.6011 216.258 68.021 215.704C67.3397 216.175 67.251 216.369 67.3141 217.187" fill="black"/>
<path d="M83.1324 207.784C82.3252 207.977 82.1714 208.125 81.9293 208.908C82.3155 208.335 82.5379 208.148 83.1324 207.784Z" fill="black"/>
<path d="M84.4072 207.67C82.805 208.059 82.3343 208.336 81.8021 210.175C82.4785 208.828 82.9907 208.332 84.4072 207.67" fill="black"/>
<path d="M87.8578 214.375C88.0285 213.625 88.332 212.903 89.5069 212.345C87.9496 212.731 87.6576 213.379 87.8578 214.375" fill="black"/>
<path d="M97.7668 214.427C98.6891 214.101 99.1336 213.366 99.3545 212.502C98.9935 213.227 98.4365 213.832 97.6798 214.203C97.2737 214.402 97.0143 214.333 96.5608 214.29C97.022 214.421 97.3141 214.586 97.7668 214.427Z" fill="black"/>
<path d="M91.4842 215.161C91.3659 214.915 91.155 214.725 90.8968 214.632C91.1231 214.513 91.3453 214.387 91.5186 214.231C91.0108 214.464 90.4197 214.407 89.9839 214.698C89.6002 214.955 89.0704 215.769 88.6804 216.114C88.9629 216.005 89.2351 215.817 89.4857 215.62C89.4871 215.808 89.5401 215.992 89.6392 216.152C89.7382 216.312 89.8795 216.443 90.0478 216.53C89.9036 216.717 89.7888 216.924 89.7073 217.145C90.4499 216.274 91.5265 215.615 92.5389 215.334C92.2559 215.33 91.9209 215.382 91.5796 215.493C91.5669 215.378 91.5346 215.266 91.4842 215.161Z" fill="black"/>
<path d="M90.4158 221.748C90.3798 221.973 90.3303 222.254 90.2942 222.48C90.3907 222.224 90.5068 221.927 90.619 221.684C90.738 221.426 90.8049 221.402 91.0574 221.266C91.2364 221.169 91.5615 221.036 91.7405 220.94C91.5563 220.971 91.2262 221.038 91.042 221.068C90.55 221.151 90.4921 221.268 90.4158 221.748Z" fill="black"/>
<path d="M82.012 213.033C81.441 213.592 80.8864 215.51 80.7092 216.278C80.9883 215.64 81.6869 213.857 82.2227 213.403C82.3707 213.278 82.4742 213.201 82.5853 213.145C82.2017 213.782 82.2299 213.94 82.3645 214.794C82.4788 213.926 82.7818 213.591 83.2789 212.943C83.8238 212.808 84.3339 212.646 84.8929 212.43C84.2633 212.5 83.633 212.565 83.0022 212.624C82.4727 212.674 82.3874 212.665 82.0119 213.033" fill="black"/>
<path d="M89.7905 216.297C89.7406 216.194 89.7345 216.074 89.7733 215.966C89.8121 215.858 89.8927 215.769 89.9974 215.72C90.0545 215.693 90.1168 215.679 90.18 215.678C90.2432 215.677 90.3058 215.69 90.3636 215.715C90.4214 215.74 90.473 215.778 90.5149 215.825C90.5567 215.872 90.5879 215.927 90.6063 215.987C90.398 216.14 90.2071 216.32 90.047 216.529C89.9393 216.486 89.8438 216.408 89.7903 216.297" fill="#FFFFCC"/>
<path d="M94.6664 214.43C94.684 214.251 94.8376 214.12 95.0178 214.137C95.1045 214.145 95.1843 214.187 95.2397 214.254C95.2951 214.321 95.3217 214.406 95.3136 214.492C95.3098 214.529 95.2998 214.565 95.2839 214.598C95.119 214.626 94.9541 214.674 94.7841 214.736C94.7131 214.664 94.6565 214.532 94.6664 214.43Z" fill="#FFFFCC"/>
</g>
<path d="M489.63 407.217C489.63 407.443 489.549 407.638 489.386 407.803C489.224 407.967 489.027 408.05 488.796 408.05C488.571 408.05 488.379 407.967 488.222 407.803C488.064 407.638 487.986 407.443 487.986 407.217C487.986 406.985 488.064 406.789 488.222 406.627C488.379 406.464 488.571 406.384 488.796 406.384C489.027 406.384 489.224 406.465 489.386 406.63C489.549 406.795 489.63 406.991 489.63 407.217Z" fill="black"/>
<path d="M499.948 407.88H498.445L492.989 399.454C492.858 399.244 492.747 399.022 492.659 398.79H492.614C492.653 399.016 492.672 399.5 492.672 400.242V407.88H491.433V397.309H493.042L498.334 405.602C498.545 405.931 498.689 406.167 498.762 406.309H498.792C498.743 406.004 498.717 405.486 498.717 404.754V397.309H499.949V407.88H499.948Z" fill="black"/>
<path d="M507.892 407.88H502.289V397.309H507.649V398.429H503.527V401.945H507.347V403.066H503.527V406.759H507.892V407.88H507.892Z" fill="black"/>
<path d="M516.391 398.429H513.345V407.88H512.107V398.429H509.056V397.308H516.391V398.429H516.391Z" fill="black"/>
<path d="M497.885 387.16C498.909 390.294 499.298 395.884 502.294 395.884C502.522 395.884 502.753 395.862 502.984 395.818C500.26 395.183 499.937 389.653 498.275 386.79C498.143 386.91 498.012 387.034 497.885 387.16" fill="url(#paint8_linear_10_1011)"/>
<path d="M498.275 386.79C499.937 389.653 500.26 395.183 502.984 395.818C503.198 395.779 503.413 395.719 503.628 395.644C501.183 394.446 500.507 389.077 498.619 386.492C498.502 386.589 498.388 386.688 498.275 386.79" fill="url(#paint9_linear_10_1011)"/>
<path d="M500.67 385.086C500.442 385.086 500.211 385.109 499.98 385.153C499.373 385.267 498.757 385.528 498.136 385.923C498.306 386.091 498.467 386.282 498.619 386.491C499.251 385.967 499.878 385.58 500.503 385.347C500.731 385.262 500.967 385.196 501.206 385.152C501.031 385.108 500.851 385.086 500.67 385.086Z" fill="#14559A"/>
<path d="M505.536 394.54C505.797 394.332 506.048 394.112 506.288 393.881C505.247 390.762 504.874 385.091 501.857 385.091C501.641 385.091 501.423 385.111 501.206 385.152C503.955 385.835 504.307 391.816 505.536 394.54" fill="url(#paint10_linear_10_1011)"/>
<path d="M501.205 385.152C501.03 385.108 500.85 385.086 500.67 385.086L501.856 385.091C501.64 385.091 501.422 385.111 501.205 385.152" fill="#3092C4"/>
<path d="M505.484 395.202C505.366 395.09 505.254 394.966 505.143 394.834C504.636 395.194 504.13 395.466 503.628 395.644C503.807 395.732 503.997 395.797 504.193 395.836C504.351 395.868 504.513 395.884 504.674 395.884C505.238 395.884 505.684 395.817 506.063 395.635C505.854 395.522 505.663 395.376 505.484 395.202Z" fill="#1969BC"/>
<path d="M500.503 385.347C502.965 386.635 503.179 392.467 505.143 394.834C505.277 394.74 505.408 394.642 505.536 394.539C504.306 391.815 503.955 385.835 501.206 385.151C500.967 385.196 500.731 385.262 500.503 385.347Z" fill="url(#paint11_linear_10_1011)"/>
<path d="M498.619 386.491C500.507 389.076 501.183 394.446 503.628 395.644C504.13 395.466 504.636 395.194 505.144 394.834C503.179 392.467 502.965 386.635 500.503 385.348C499.878 385.58 499.251 385.967 498.619 386.491" fill="url(#paint12_linear_10_1011)"/>
<path d="M496.677 387.085C496.381 387.754 496.079 388.633 495.713 389.781C496.44 388.757 497.164 387.875 497.885 387.16C497.785 386.855 497.679 386.574 497.564 386.323C497.255 386.561 496.959 386.815 496.677 387.085" fill="url(#paint13_linear_10_1011)"/>
<path d="M497.826 386.13C497.738 386.193 497.651 386.258 497.564 386.323C497.679 386.574 497.785 386.855 497.884 387.159C498.012 387.034 498.142 386.91 498.274 386.789C498.135 386.55 497.987 386.329 497.826 386.13Z" fill="#2B74B1"/>
<path d="M498.136 385.923C498.031 385.99 497.928 386.059 497.826 386.13C497.987 386.328 498.135 386.549 498.275 386.789C498.387 386.687 498.502 386.588 498.619 386.491C498.467 386.282 498.306 386.091 498.136 385.923" fill="#125A9E"/>
<path d="M514.929 384.848C513.537 390.218 510.629 394.531 508.19 395.618H508.186C508.141 395.638 508.097 395.657 508.054 395.675C508.048 395.678 508.043 395.679 508.038 395.681C508.025 395.686 508.013 395.69 508.001 395.695C507.995 395.699 507.989 395.7 507.984 395.702C507.963 395.709 507.943 395.716 507.923 395.724C507.914 395.727 507.906 395.73 507.898 395.732C507.888 395.736 507.878 395.74 507.867 395.742C507.858 395.746 507.849 395.749 507.838 395.753C507.829 395.756 507.82 395.758 507.812 395.761C507.794 395.766 507.778 395.771 507.76 395.777C507.753 395.777 507.746 395.781 507.738 395.783C507.727 395.787 507.715 395.789 507.703 395.792C507.695 395.796 507.688 395.797 507.679 395.799C507.667 395.803 507.653 395.806 507.641 395.809L507.594 395.819C507.706 395.86 507.824 395.881 507.943 395.88C510.255 395.88 512.586 391.737 516.443 384.847H514.929L514.929 384.848Z" fill="url(#paint14_linear_10_1011)"/>
<path d="M495.211 385.305C495.213 385.305 495.215 385.301 495.215 385.301C495.217 385.301 495.22 385.301 495.221 385.297H495.224C495.237 385.293 495.248 385.288 495.261 385.283C495.265 385.283 495.266 385.283 495.269 385.28C495.272 385.28 495.275 385.276 495.278 385.275C495.292 385.271 495.306 385.266 495.319 385.261H495.321C495.351 385.252 495.38 385.241 495.409 385.23C495.414 385.23 495.418 385.226 495.423 385.226C495.435 385.222 495.448 385.218 495.461 385.215C495.467 385.211 495.473 385.211 495.478 385.21C495.491 385.206 495.504 385.201 495.516 385.198C495.522 385.198 495.527 385.195 495.531 385.194C495.574 385.183 495.616 385.172 495.658 385.161C495.664 385.161 495.669 385.158 495.676 385.157C495.688 385.154 495.699 385.152 495.713 385.15C495.718 385.146 495.724 385.146 495.731 385.145C495.743 385.141 495.755 385.14 495.768 385.138H495.777C495.803 385.132 495.829 385.128 495.854 385.123H495.87C495.882 385.12 495.893 385.119 495.906 385.117C495.912 385.117 495.919 385.113 495.926 385.113C495.937 385.113 495.949 385.11 495.96 385.108C495.966 385.108 495.972 385.108 495.979 385.105C496.006 385.101 496.034 385.1 496.062 385.097C495.98 385.089 495.898 385.085 495.816 385.084C493.212 385.084 489.625 389.916 488.009 396.172H488.32C488.837 395.25 489.302 394.377 489.727 393.558C490.859 389.127 493.164 386.105 495.211 385.304" fill="url(#paint15_linear_10_1011)"/>
<path d="M496.677 387.083C496.958 386.814 497.254 386.56 497.563 386.323C497.5 386.183 497.43 386.047 497.352 385.915C497.114 386.203 496.897 386.584 496.677 387.083Z" fill="#0D82CA"/>
<path d="M496.891 385.341C497.061 385.484 497.213 385.68 497.352 385.915C497.396 385.861 497.441 385.811 497.487 385.764C497.293 385.584 497.084 385.436 496.858 385.324C496.867 385.329 496.876 385.333 496.886 385.337C496.886 385.337 496.889 385.341 496.891 385.341" fill="#0D82CA"/>
<path d="M489.727 393.559C492.101 388.984 493.226 386.088 495.211 385.304C493.164 386.105 490.858 389.128 489.727 393.559" fill="url(#paint16_linear_10_1011)"/>
<path d="M497.487 385.765C497.441 385.812 497.397 385.861 497.353 385.915C497.43 386.047 497.501 386.183 497.564 386.323C497.65 386.257 497.738 386.193 497.826 386.13C497.722 386.001 497.608 385.878 497.487 385.765Z" fill="#127BCA"/>
<path d="M490.804 396.152C490.79 396.156 490.775 396.156 490.761 396.157H490.753C490.741 396.157 490.728 396.161 490.717 396.161H490.711C490.681 396.164 490.652 396.164 490.623 396.167H490.614C493.017 396.099 494.116 394.896 494.661 393.151C495.075 391.828 495.415 390.714 495.713 389.779C494.707 391.196 493.696 392.884 492.679 394.776C492.189 395.688 491.444 396.069 490.804 396.15" fill="url(#paint17_linear_10_1011)"/>
<path d="M490.805 396.151C491.444 396.07 492.189 395.689 492.679 394.777C493.696 392.886 494.707 391.196 495.713 389.78C496.079 388.631 496.381 387.752 496.677 387.083C494.673 388.991 492.661 392.163 490.804 396.15" fill="url(#paint18_linear_10_1011)"/>
<path d="M489.727 393.559C489.302 394.378 488.837 395.251 488.32 396.173H489.226C489.34 395.293 489.508 394.42 489.727 393.56" fill="#05A1E6"/>
<path d="M495.979 385.107C495.971 385.107 495.966 385.11 495.959 385.11C495.948 385.114 495.937 385.114 495.926 385.115C495.919 385.115 495.912 385.115 495.905 385.119C495.893 385.122 495.882 385.123 495.87 385.125C495.864 385.125 495.859 385.125 495.854 385.129C495.828 385.133 495.803 385.138 495.777 385.142H495.768C495.755 385.146 495.743 385.148 495.731 385.15C495.724 385.153 495.718 385.153 495.712 385.155C495.7 385.158 495.687 385.16 495.675 385.162C495.669 385.166 495.664 385.166 495.658 385.166C495.616 385.176 495.573 385.187 495.531 385.199C495.526 385.199 495.522 385.203 495.516 385.203C495.504 385.207 495.491 385.211 495.478 385.215C495.472 385.218 495.466 385.218 495.461 385.22C495.448 385.223 495.435 385.227 495.422 385.231C495.418 385.231 495.413 385.235 495.409 385.235C495.38 385.246 495.351 385.257 495.321 385.266C495.308 385.27 495.294 385.275 495.28 385.28C495.275 385.283 495.27 385.284 495.263 385.287C495.251 385.291 495.238 385.296 495.226 385.3C495.221 385.304 495.217 385.304 495.214 385.306C493.228 386.09 492.103 388.986 489.729 393.561C489.51 394.421 489.342 395.294 489.228 396.174H489.355C489.713 396.174 489.815 396.171 490.226 396.171H490.626C490.654 396.167 490.683 396.167 490.713 396.165H490.719C490.731 396.165 490.743 396.161 490.755 396.161H490.764C490.777 396.161 490.792 396.157 490.807 396.156C492.663 392.169 494.675 388.997 496.679 387.089C496.9 386.59 497.117 386.209 497.355 385.92C497.216 385.685 497.063 385.488 496.893 385.346C496.893 385.346 496.889 385.346 496.888 385.342C496.879 385.338 496.869 385.333 496.86 385.329C496.85 385.323 496.842 385.319 496.832 385.314C496.823 385.31 496.813 385.306 496.805 385.301C496.793 385.297 496.783 385.292 496.773 385.288C496.764 385.284 496.756 385.28 496.747 385.277C496.73 385.27 496.712 385.262 496.695 385.255C496.687 385.251 496.68 385.249 496.672 385.246C496.659 385.241 496.646 385.236 496.633 385.231C496.627 385.227 496.619 385.226 496.612 385.224C496.593 385.217 496.575 385.211 496.558 385.205H496.553C496.532 385.198 496.511 385.193 496.49 385.187C496.485 385.183 496.481 385.183 496.476 385.182C496.457 385.177 496.441 385.172 496.423 385.168C496.418 385.168 496.414 385.164 496.41 385.164C496.367 385.153 496.323 385.143 496.278 385.135C496.274 385.135 496.269 385.131 496.265 385.131C496.246 385.128 496.227 385.125 496.207 385.122C496.203 385.119 496.2 385.119 496.196 385.119C496.174 385.115 496.151 385.112 496.128 385.11H496.116C496.098 385.106 496.081 385.106 496.064 385.104C496.035 385.108 496.008 385.109 495.981 385.112" fill="url(#paint19_linear_10_1011)"/>
<path d="M509.49 387.821C509.034 389.284 508.664 390.491 508.342 391.485C509.595 389.76 510.83 387.59 512.006 385.086C510.634 385.517 509.903 386.503 509.49 387.821Z" fill="url(#paint20_linear_10_1011)"/>
<path d="M508.382 395.527C508.318 395.56 508.253 395.591 508.19 395.619C510.629 394.531 513.537 390.218 514.929 384.848H514.647C511.448 390.563 510.419 394.388 508.382 395.527Z" fill="url(#paint21_linear_10_1011)"/>
<path d="M506.789 395.047C507.32 394.399 507.752 393.298 508.342 391.484C507.661 392.419 506.976 393.223 506.291 393.878C506.291 393.881 506.291 393.881 506.287 393.884C506.437 394.332 506.601 394.727 506.788 395.047" fill="#079AE1"/>
<path d="M506.789 395.047C506.609 395.267 506.418 395.435 506.205 395.559C506.158 395.586 506.111 395.612 506.063 395.635C506.294 395.76 506.546 395.84 506.807 395.87C506.847 395.874 506.887 395.878 506.929 395.881H506.936C506.955 395.881 506.975 395.881 506.995 395.884H507.193C507.2 395.884 507.208 395.884 507.215 395.881C507.23 395.881 507.245 395.881 507.259 395.877H507.281C507.296 395.877 507.312 395.873 507.328 395.872H507.332C507.337 395.872 507.342 395.868 507.347 395.868C507.363 395.864 507.381 395.863 507.398 395.86H507.413C507.431 395.857 507.45 395.855 507.47 395.851H507.479C507.517 395.844 507.555 395.836 507.593 395.827C507.278 395.712 507.015 395.44 506.788 395.053" fill="#1969BC"/>
<path d="M502.294 395.884C502.522 395.884 502.753 395.862 502.984 395.817C503.198 395.779 503.413 395.719 503.628 395.644C503.807 395.732 503.997 395.797 504.192 395.837C504.351 395.869 504.513 395.885 504.674 395.884H502.294Z" fill="#1E5CB3"/>
<path d="M504.674 395.884C505.238 395.884 505.684 395.817 506.063 395.635C506.294 395.76 506.546 395.84 506.807 395.87C506.847 395.874 506.887 395.878 506.929 395.88H506.936C506.955 395.88 506.975 395.88 506.995 395.884H507.063H504.673H504.674V395.884Z" fill="#1E5CB3"/>
<path d="M507.064 395.884H507.195C507.203 395.884 507.21 395.884 507.217 395.881C507.231 395.881 507.246 395.881 507.261 395.877H507.283C507.298 395.877 507.314 395.873 507.33 395.872H507.334C507.339 395.872 507.344 395.868 507.348 395.868C507.365 395.865 507.383 395.863 507.399 395.86C507.405 395.86 507.409 395.86 507.415 395.857C507.433 395.853 507.453 395.851 507.472 395.848H507.481C507.519 395.84 507.557 395.833 507.595 395.824C507.706 395.865 507.824 395.886 507.943 395.885L507.065 395.889L507.064 395.884Z" fill="#1D60B5"/>
<path d="M506.289 393.884V393.88C506.048 394.111 505.798 394.331 505.537 394.539C505.409 394.641 505.278 394.74 505.144 394.834C505.254 394.966 505.367 395.089 505.485 395.202C505.664 395.376 505.855 395.522 506.064 395.635C506.112 395.611 506.159 395.586 506.206 395.559C506.419 395.435 506.61 395.267 506.79 395.046C506.603 394.727 506.439 394.332 506.29 393.884" fill="#175FAB"/>
<path d="M513.754 384.848H512.334C512.257 384.852 512.182 384.854 512.109 384.859C512.074 384.934 512.038 385.008 512.004 385.083C510.828 387.587 509.594 389.757 508.34 391.482C507.751 393.296 507.318 394.397 506.788 395.044C507.014 395.431 507.278 395.703 507.592 395.818C507.601 395.815 507.609 395.815 507.617 395.813H507.622C507.627 395.813 507.633 395.809 507.639 395.809C507.652 395.806 507.666 395.803 507.679 395.799C507.687 395.796 507.694 395.795 507.702 395.793C507.714 395.789 507.726 395.787 507.737 395.784C507.744 395.78 507.752 395.779 507.759 395.777C507.777 395.771 507.794 395.767 507.811 395.762C507.819 395.758 507.828 395.755 507.837 395.753C507.847 395.749 507.857 395.747 507.867 395.742C507.877 395.739 507.888 395.737 507.897 395.733C507.905 395.729 507.913 395.727 507.921 395.724C507.942 395.716 507.962 395.71 507.983 395.702C507.988 395.702 507.994 395.697 508 395.696C508.012 395.691 508.025 395.687 508.037 395.681C508.042 395.677 508.047 395.677 508.053 395.675C508.096 395.657 508.14 395.639 508.185 395.619H508.189C508.254 395.59 508.317 395.56 508.38 395.527C510.418 394.389 511.447 390.563 514.646 384.849H513.753L513.754 384.848H513.754Z" fill="url(#paint22_linear_10_1011)"/>
<path d="M496.062 385.099C496.067 385.099 496.072 385.099 496.077 385.103C496.089 385.103 496.101 385.103 496.114 385.107H496.126C496.148 385.11 496.171 385.112 496.194 385.116C496.198 385.116 496.201 385.116 496.205 385.119C496.224 385.123 496.243 385.126 496.262 385.129C496.266 385.129 496.272 385.132 496.276 385.132C496.32 385.141 496.365 385.15 496.408 385.162C496.412 385.162 496.416 385.165 496.42 385.165C496.438 385.17 496.455 385.175 496.473 385.18C496.479 385.18 496.483 385.184 496.488 385.185C496.509 385.19 496.529 385.196 496.55 385.203C496.551 385.203 496.553 385.203 496.555 385.206C496.573 385.212 496.591 385.219 496.61 385.225C496.617 385.228 496.624 385.23 496.631 385.232C496.644 385.237 496.658 385.243 496.67 385.248C496.678 385.248 496.685 385.253 496.693 385.256C496.709 385.263 496.727 385.27 496.745 385.278C496.754 385.281 496.762 385.285 496.77 385.289C496.78 385.294 496.791 385.298 496.802 385.302C496.811 385.307 496.821 385.311 496.83 385.315C496.839 385.32 496.848 385.324 496.858 385.33C497.084 385.441 497.293 385.59 497.487 385.77C497.556 385.697 497.631 385.629 497.71 385.567C497.287 385.267 496.808 385.096 496.255 385.096C496.191 385.096 496.127 385.1 496.062 385.105" fill="#7DCBEC"/>
<path d="M497.487 385.764C497.608 385.878 497.722 386 497.826 386.13C497.928 386.058 498.031 385.989 498.136 385.923C498.004 385.791 497.862 385.67 497.709 385.562C497.63 385.623 497.556 385.691 497.487 385.764" fill="#5EC5ED"/>
<path d="M496.062 385.099C496.127 385.094 496.191 385.091 496.255 385.091C496.808 385.091 497.287 385.262 497.71 385.562C498.156 385.21 498.696 385.087 499.445 385.087H495.816C495.9 385.087 495.981 385.092 496.062 385.099Z" fill="url(#paint23_linear_10_1011)"/>
<path d="M499.445 385.087C498.696 385.087 498.156 385.21 497.71 385.562C497.862 385.67 498.004 385.791 498.136 385.923C498.757 385.528 499.373 385.267 499.98 385.152C500.207 385.109 500.438 385.087 500.67 385.087H499.445Z" fill="url(#paint24_linear_10_1011)"/>
<path d="M508.342 391.486C508.664 390.491 509.033 389.285 509.491 387.821C509.903 386.502 510.634 385.516 512.005 385.086C512.041 385.012 512.075 384.936 512.111 384.862C509.875 384.996 508.83 386.133 508.304 387.817C507.385 390.757 506.828 392.663 506.291 393.878C506.976 393.223 507.661 392.419 508.342 391.486Z" fill="url(#paint25_linear_10_1011)"/>
<g clip-path="url(#clip11_10_1011)">
<path d="M41.8589 313.129C41.8589 306.143 36.189 300.473 29.2028 300.473C22.2167 300.473 16.5468 306.143 16.5468 313.129C16.5468 320.115 22.2167 325.785 29.2028 325.785C36.189 325.785 41.8589 320.115 41.8589 313.129ZM29.2028 301.751C35.4929 301.751 40.5807 306.839 40.5807 313.129C40.5807 319.419 35.4929 324.507 29.2028 324.507C22.9128 324.507 17.825 319.419 17.825 313.129C17.825 306.839 22.9128 301.751 29.2028 301.751ZM26.6843 319.229L22.8242 308.838C23.4443 308.8 24.1531 308.737 24.1531 308.737C24.6973 308.674 24.634 307.459 24.0771 307.484C24.0771 307.484 22.4445 307.611 21.3814 307.611C21.1915 307.611 20.9637 307.611 20.7233 307.598C22.5457 304.852 25.6591 303.042 29.2028 303.042C31.848 303.042 34.2526 304.042 36.0498 305.687C35.2904 305.586 34.2146 306.13 34.2146 307.484C34.2146 308.319 34.6956 309.028 35.2145 309.863C35.6068 310.547 35.8473 311.408 35.8473 312.66C35.8473 314.356 34.24 318.33 34.24 318.33L30.8102 308.838C31.4177 308.8 31.7594 308.636 31.7594 308.636C32.3036 308.573 32.2403 307.244 31.6961 307.269C31.6961 307.269 30.0508 307.408 28.9877 307.408C28.0005 307.408 26.3172 307.269 26.3172 307.269C25.773 307.244 25.7098 308.611 26.254 308.636L27.3171 308.737L28.7346 312.585L26.6843 319.229ZM34.3032 321.95L37.6065 313.129C37.6065 313.129 38.4544 310.99 38.1001 308.307C38.8974 309.75 39.2897 311.37 39.2897 313.129C39.2897 316.875 37.3154 320.191 34.3032 321.95ZM19.9386 309.041L24.7732 322.304C21.394 320.659 19.1159 317.141 19.1159 313.129C19.1159 311.661 19.3691 310.306 19.9386 309.041ZM29.3674 314.774L32.2656 322.684C31.3164 323.026 30.2786 323.216 29.2028 323.216C28.2916 323.216 27.4183 323.076 26.5957 322.836L29.3674 314.774Z" fill="#00ADEF"/>
</g>
<defs>
<filter id="filter0_d_10_1011" x="202.498" y="139.217" width="193.404" height="193.404" filterUnits="userSpaceOnUse" color-interpolation-filters="sRGB">
<feFlood flood-opacity="0" result="BackgroundImageFix"/>
<feColorMatrix in="SourceAlpha" type="matrix" values="0 0 0 0 0 0 0 0 0 0 0 0 0 0 0 0 0 0 127 0" result="hardAlpha"/>
<feOffset dy="4"/>
<feGaussianBlur stdDeviation="3"/>
<feComposite in2="hardAlpha" operator="out"/>
<feColorMatrix type="matrix" values="0 0 0 0 0.337255 0 0 0 0 0.384314 0 0 0 0 0.454902 0 0 0 0.2 0"/>
<feBlend mode="normal" in2="BackgroundImageFix" result="effect1_dropShadow_10_1011"/>
<feBlend mode="normal" in="SourceGraphic" in2="effect1_dropShadow_10_1011" result="shape"/>
</filter>
<filter id="filter1_d_10_1011" x="490.423" y="108.631" width="119.577" height="121.686" filterUnits="userSpaceOnUse" color-interpolation-filters="sRGB">
<feFlood flood-opacity="0" result="BackgroundImageFix"/>
<feColorMatrix in="SourceAlpha" type="matrix" values="0 0 0 0 0 0 0 0 0 0 0 0 0 0 0 0 0 0 127 0" result="hardAlpha"/>
<feOffset dy="4"/>
<feGaussianBlur stdDeviation="3"/>
<feComposite in2="hardAlpha" operator="out"/>
<feColorMatrix type="matrix" values="0 0 0 0 0.364706 0 0 0 0 0.411765 0 0 0 0 0.478431 0 0 0 0.2 0"/>
<feBlend mode="normal" in2="BackgroundImageFix" result="effect1_dropShadow_10_1011"/>
<feBlend mode="normal" in="SourceGraphic" in2="effect1_dropShadow_10_1011" result="shape"/>
</filter>
<filter id="filter2_d_10_1011" x="30.5856" y="54.8433" width="113.249" height="112.194" filterUnits="userSpaceOnUse" color-interpolation-filters="sRGB">
<feFlood flood-opacity="0" result="BackgroundImageFix"/>
<feColorMatrix in="SourceAlpha" type="matrix" values="0 0 0 0 0 0 0 0 0 0 0 0 0 0 0 0 0 0 127 0" result="hardAlpha"/>
<feOffset dy="4"/>
<feGaussianBlur stdDeviation="3"/>
<feComposite in2="hardAlpha" operator="out"/>
<feColorMatrix type="matrix" values="0 0 0 0 0.364706 0 0 0 0 0.411765 0 0 0 0 0.478431 0 0 0 0.2 0"/>
<feBlend mode="normal" in2="BackgroundImageFix" result="effect1_dropShadow_10_1011"/>
<feBlend mode="normal" in="SourceGraphic" in2="effect1_dropShadow_10_1011" result="shape"/>
</filter>
<filter id="filter3_d_10_1011" x="76.9912" y="272.106" width="109.03" height="109.03" filterUnits="userSpaceOnUse" color-interpolation-filters="sRGB">
<feFlood flood-opacity="0" result="BackgroundImageFix"/>
<feColorMatrix in="SourceAlpha" type="matrix" values="0 0 0 0 0 0 0 0 0 0 0 0 0 0 0 0 0 0 127 0" result="hardAlpha"/>
<feOffset dy="4"/>
<feGaussianBlur stdDeviation="3"/>
<feComposite in2="hardAlpha" operator="out"/>
<feColorMatrix type="matrix" values="0 0 0 0 0.364706 0 0 0 0 0.411765 0 0 0 0 0.478431 0 0 0 0.2 0"/>
<feBlend mode="normal" in2="BackgroundImageFix" result="effect1_dropShadow_10_1011"/>
<feBlend mode="normal" in="SourceGraphic" in2="effect1_dropShadow_10_1011" result="shape"/>
</filter>
<filter id="filter4_d_10_1011" x="223.591" y="375.464" width="65.7883" height="65.7886" filterUnits="userSpaceOnUse" color-interpolation-filters="sRGB">
<feFlood flood-opacity="0" result="BackgroundImageFix"/>
<feColorMatrix in="SourceAlpha" type="matrix" values="0 0 0 0 0 0 0 0 0 0 0 0 0 0 0 0 0 0 127 0" result="hardAlpha"/>
<feOffset dy="4"/>
<feGaussianBlur stdDeviation="3"/>
<feComposite in2="hardAlpha" operator="out"/>
<feColorMatrix type="matrix" values="0 0 0 0 0.364706 0 0 0 0 0.411765 0 0 0 0 0.478431 0 0 0 0.2 0"/>
<feBlend mode="normal" in2="BackgroundImageFix" result="effect1_dropShadow_10_1011"/>
<feBlend mode="normal" in="SourceGraphic" in2="effect1_dropShadow_10_1011" result="shape"/>
</filter>
<filter id="filter5_d_10_1011" x="0" y="287.926" width="58.4056" height="58.4058" filterUnits="userSpaceOnUse" color-interpolation-filters="sRGB">
<feFlood flood-opacity="0" result="BackgroundImageFix"/>
<feColorMatrix in="SourceAlpha" type="matrix" values="0 0 0 0 0 0 0 0 0 0 0 0 0 0 0 0 0 0 127 0" result="hardAlpha"/>
<feOffset dy="4"/>
<feGaussianBlur stdDeviation="3"/>
<feComposite in2="hardAlpha" operator="out"/>
<feColorMatrix type="matrix" values="0 0 0 0 0.364706 0 0 0 0 0.411765 0 0 0 0 0.478431 0 0 0 0.2 0"/>
<feBlend mode="normal" in2="BackgroundImageFix" result="effect1_dropShadow_10_1011"/>
<feBlend mode="normal" in="SourceGraphic" in2="effect1_dropShadow_10_1011" result="shape"/>
</filter>
<filter id="filter6_d_10_1011" x="51.679" y="190.896" width="65.7883" height="65.7886" filterUnits="userSpaceOnUse" color-interpolation-filters="sRGB">
<feFlood flood-opacity="0" result="BackgroundImageFix"/>
<feColorMatrix in="SourceAlpha" type="matrix" values="0 0 0 0 0 0 0 0 0 0 0 0 0 0 0 0 0 0 127 0" result="hardAlpha"/>
<feOffset dy="4"/>
<feGaussianBlur stdDeviation="3"/>
<feComposite in2="hardAlpha" operator="out"/>
<feColorMatrix type="matrix" values="0 0 0 0 0.364706 0 0 0 0 0.411765 0 0 0 0 0.478431 0 0 0 0.2 0"/>
<feBlend mode="normal" in2="BackgroundImageFix" result="effect1_dropShadow_10_1011"/>
<feBlend mode="normal" in="SourceGraphic" in2="effect1_dropShadow_10_1011" result="shape"/>
</filter>
<filter id="filter7_d_10_1011" x="147.654" y="11.6016" width="57.351" height="56.2964" filterUnits="userSpaceOnUse" color-interpolation-filters="sRGB">
<feFlood flood-opacity="0" result="BackgroundImageFix"/>
<feColorMatrix in="SourceAlpha" type="matrix" values="0 0 0 0 0 0 0 0 0 0 0 0 0 0 0 0 0 0 127 0" result="hardAlpha"/>
<feOffset dy="4"/>
<feGaussianBlur stdDeviation="3"/>
<feComposite in2="hardAlpha" operator="out"/>
<feColorMatrix type="matrix" values="0 0 0 0 0.364706 0 0 0 0 0.411765 0 0 0 0 0.478431 0 0 0 0.2 0"/>
<feBlend mode="normal" in2="BackgroundImageFix" result="effect1_dropShadow_10_1011"/>
<feBlend mode="normal" in="SourceGraphic" in2="effect1_dropShadow_10_1011" result="shape"/>
</filter>
<filter id="filter8_d_10_1011" x="414.487" y="187.732" width="59.4603" height="58.4058" filterUnits="userSpaceOnUse" color-interpolation-filters="sRGB">
<feFlood flood-opacity="0" result="BackgroundImageFix"/>
<feColorMatrix in="SourceAlpha" type="matrix" values="0 0 0 0 0 0 0 0 0 0 0 0 0 0 0 0 0 0 127 0" result="hardAlpha"/>
<feOffset dy="4"/>
<feGaussianBlur stdDeviation="3"/>
<feComposite in2="hardAlpha" operator="out"/>
<feColorMatrix type="matrix" values="0 0 0 0 0.364706 0 0 0 0 0.411765 0 0 0 0 0.478431 0 0 0 0.2 0"/>
<feBlend mode="normal" in2="BackgroundImageFix" result="effect1_dropShadow_10_1011"/>
<feBlend mode="normal" in="SourceGraphic" in2="effect1_dropShadow_10_1011" result="shape"/>
</filter>
<filter id="filter9_d_10_1011" x="525.228" y="252.067" width="58.4056" height="58.4058" filterUnits="userSpaceOnUse" color-interpolation-filters="sRGB">
<feFlood flood-opacity="0" result="BackgroundImageFix"/>
<feColorMatrix in="SourceAlpha" type="matrix" values="0 0 0 0 0 0 0 0 0 0 0 0 0 0 0 0 0 0 127 0" result="hardAlpha"/>
<feOffset dy="4"/>
<feGaussianBlur stdDeviation="3"/>
<feComposite in2="hardAlpha" operator="out"/>
<feColorMatrix type="matrix" values="0 0 0 0 0.364706 0 0 0 0 0.411765 0 0 0 0 0.478431 0 0 0 0.2 0"/>
<feBlend mode="normal" in2="BackgroundImageFix" result="effect1_dropShadow_10_1011"/>
<feBlend mode="normal" in="SourceGraphic" in2="effect1_dropShadow_10_1011" result="shape"/>
</filter>
<filter id="filter10_d_10_1011" x="472.494" y="370.19" width="59.4603" height="59.4604" filterUnits="userSpaceOnUse" color-interpolation-filters="sRGB">
<feFlood flood-opacity="0" result="BackgroundImageFix"/>
<feColorMatrix in="SourceAlpha" type="matrix" values="0 0 0 0 0 0 0 0 0 0 0 0 0 0 0 0 0 0 127 0" result="hardAlpha"/>
<feOffset dy="4"/>
<feGaussianBlur stdDeviation="3"/>
<feComposite in2="hardAlpha" operator="out"/>
<feColorMatrix type="matrix" values="0 0 0 0 0.364706 0 0 0 0 0.411765 0 0 0 0 0.478431 0 0 0 0.2 0"/>
<feBlend mode="normal" in2="BackgroundImageFix" result="effect1_dropShadow_10_1011"/>
<feBlend mode="normal" in="SourceGraphic" in2="effect1_dropShadow_10_1011" result="shape"/>
</filter>
<filter id="filter11_d_10_1011" x="323.785" y="371.245" width="109.03" height="110.084" filterUnits="userSpaceOnUse" color-interpolation-filters="sRGB">
<feFlood flood-opacity="0" result="BackgroundImageFix"/>
<feColorMatrix in="SourceAlpha" type="matrix" values="0 0 0 0 0 0 0 0 0 0 0 0 0 0 0 0 0 0 127 0" result="hardAlpha"/>
<feOffset dy="4"/>
<feGaussianBlur stdDeviation="3"/>
<feComposite in2="hardAlpha" operator="out"/>
<feColorMatrix type="matrix" values="0 0 0 0 0.364706 0 0 0 0 0.411765 0 0 0 0 0.478431 0 0 0 0.2 0"/>
<feBlend mode="normal" in2="BackgroundImageFix" result="effect1_dropShadow_10_1011"/>
<feBlend mode="normal" in="SourceGraphic" in2="effect1_dropShadow_10_1011" result="shape"/>
</filter>
<filter id="filter12_d_10_1011" x="330.113" y="0" width="101.647" height="101.647" filterUnits="userSpaceOnUse" color-interpolation-filters="sRGB">
<feFlood flood-opacity="0" result="BackgroundImageFix"/>
<feColorMatrix in="SourceAlpha" type="matrix" values="0 0 0 0 0 0 0 0 0 0 0 0 0 0 0 0 0 0 127 0" result="hardAlpha"/>
<feOffset dy="4"/>
<feGaussianBlur stdDeviation="3"/>
<feComposite in2="hardAlpha" operator="out"/>
<feColorMatrix type="matrix" values="0 0 0 0 0.364706 0 0 0 0 0.411765 0 0 0 0 0.478431 0 0 0 0.2 0"/>
<feBlend mode="normal" in2="BackgroundImageFix" result="effect1_dropShadow_10_1011"/>
<feBlend mode="normal" in="SourceGraphic" in2="effect1_dropShadow_10_1011" result="shape"/>
</filter>
<filter id="filter13_d_10_1011" x="221.481" y="48.5151" width="75.2804" height="76.335" filterUnits="userSpaceOnUse" color-interpolation-filters="sRGB">
<feFlood flood-opacity="0" result="BackgroundImageFix"/>
<feColorMatrix in="SourceAlpha" type="matrix" values="0 0 0 0 0 0 0 0 0 0 0 0 0 0 0 0 0 0 127 0" result="hardAlpha"/>
<feOffset dy="4"/>
<feGaussianBlur stdDeviation="3"/>
<feComposite in2="hardAlpha" operator="out"/>
<feColorMatrix type="matrix" values="0 0 0 0 0.364706 0 0 0 0 0.411765 0 0 0 0 0.478431 0 0 0 0.2 0"/>
<feBlend mode="normal" in2="BackgroundImageFix" result="effect1_dropShadow_10_1011"/>
<feBlend mode="normal" in="SourceGraphic" in2="effect1_dropShadow_10_1011" result="shape"/>
</filter>
<filter id="filter14_d_10_1011" x="449.291" y="55.8979" width="53.1323" height="52.0776" filterUnits="userSpaceOnUse" color-interpolation-filters="sRGB">
<feFlood flood-opacity="0" result="BackgroundImageFix"/>
<feColorMatrix in="SourceAlpha" type="matrix" values="0 0 0 0 0 0 0 0 0 0 0 0 0 0 0 0 0 0 127 0" result="hardAlpha"/>
<feOffset dy="4"/>
<feGaussianBlur stdDeviation="3"/>
<feComposite in2="hardAlpha" operator="out"/>
<feColorMatrix type="matrix" values="0 0 0 0 0.364706 0 0 0 0 0.411765 0 0 0 0 0.478431 0 0 0 0.2 0"/>
<feBlend mode="normal" in2="BackgroundImageFix" result="effect1_dropShadow_10_1011"/>
<feBlend mode="normal" in="SourceGraphic" in2="effect1_dropShadow_10_1011" result="shape"/>
</filter>
<filter id="filter15_d_10_1011" x="420.815" y="272.106" width="78.4445" height="78.4443" filterUnits="userSpaceOnUse" color-interpolation-filters="sRGB">
<feFlood flood-opacity="0" result="BackgroundImageFix"/>
<feColorMatrix in="SourceAlpha" type="matrix" values="0 0 0 0 0 0 0 0 0 0 0 0 0 0 0 0 0 0 127 0" result="hardAlpha"/>
<feOffset dy="4"/>
<feGaussianBlur stdDeviation="3"/>
<feComposite in2="hardAlpha" operator="out"/>
<feColorMatrix type="matrix" values="0 0 0 0 0.364706 0 0 0 0 0.411765 0 0 0 0 0.478431 0 0 0 0.2 0"/>
<feBlend mode="normal" in2="BackgroundImageFix" result="effect1_dropShadow_10_1011"/>
<feBlend mode="normal" in="SourceGraphic" in2="effect1_dropShadow_10_1011" result="shape"/>
</filter>
<filter id="filter16_d_10_1011" x="132.889" y="400.776" width="81.6084" height="81.6084" filterUnits="userSpaceOnUse" color-interpolation-filters="sRGB">
<feFlood flood-opacity="0" result="BackgroundImageFix"/>
<feColorMatrix in="SourceAlpha" type="matrix" values="0 0 0 0 0 0 0 0 0 0 0 0 0 0 0 0 0 0 127 0" result="hardAlpha"/>
<feOffset dy="4"/>
<feGaussianBlur stdDeviation="3"/>
<feComposite in2="hardAlpha" operator="out"/>
<feColorMatrix type="matrix" values="0 0 0 0 0.364706 0 0 0 0 0.411765 0 0 0 0 0.478431 0 0 0 0.2 0"/>
<feBlend mode="normal" in2="BackgroundImageFix" result="effect1_dropShadow_10_1011"/>
<feBlend mode="normal" in="SourceGraphic" in2="effect1_dropShadow_10_1011" result="shape"/>
</filter>
<linearGradient id="paint0_linear_10_1011" x1="264.395" y1="241.229" x2="334.287" y2="241.229" gradientUnits="userSpaceOnUse">
<stop stop-color="#6B46FF"/>
<stop offset="1" stop-color="#6B46FF" stop-opacity="0.9"/>
</linearGradient>
<linearGradient id="paint1_linear_10_1011" x1="287.257" y1="213.702" x2="311.425" y2="213.702" gradientUnits="userSpaceOnUse">
<stop stop-color="#6B46FF"/>
<stop offset="1" stop-color="#6B46FF" stop-opacity="0.9"/>
</linearGradient>
<linearGradient id="paint2_linear_10_1011" x1="56.0169" y1="126.845" x2="100.181" y2="82.6804" gradientUnits="userSpaceOnUse">
<stop offset="0.108" stop-color="#C757BC"/>
<stop offset="0.173" stop-color="#CD5CA9"/>
<stop offset="0.492" stop-color="#E8744F"/>
<stop offset="0.716" stop-color="#F88316"/>
<stop offset="0.823" stop-color="#FF8900"/>
</linearGradient>
<linearGradient id="paint3_linear_10_1011" x1="79.1542" y1="139.233" x2="100.681" y2="117.706" gradientUnits="userSpaceOnUse">
<stop offset="0.296" stop-color="#00AFFF"/>
<stop offset="0.694" stop-color="#5282FF"/>
<stop offset="1" stop-color="#945DFF"/>
</linearGradient>
<linearGradient id="paint4_linear_10_1011" x1="28.2408" y1="947.759" x2="1023.64" y2="1.20457" gradientUnits="userSpaceOnUse">
<stop offset="0.296" stop-color="#00AFFF"/>
<stop offset="0.694" stop-color="#5282FF"/>
<stop offset="1" stop-color="#945DFF"/>
</linearGradient>
<linearGradient id="paint5_linear_10_1011" x1="361.783" y1="27.3594" x2="385.337" y2="50.5873" gradientUnits="userSpaceOnUse">
<stop stop-color="#387EB8"/>
<stop offset="1" stop-color="#366994"/>
</linearGradient>
<linearGradient id="paint6_linear_10_1011" x1="376.184" y1="42.3343" x2="401.474" y2="66.1481" gradientUnits="userSpaceOnUse">
<stop stop-color="#FFE052"/>
<stop offset="1" stop-color="#FFC331"/>
</linearGradient>
<linearGradient id="paint7_linear_10_1011" x1="132.831" y1="318.81" x2="131.873" y2="344.912" gradientUnits="userSpaceOnUse">
<stop stop-color="#F88535"/>
<stop offset="1" stop-color="#FD2221"/>
</linearGradient>
<linearGradient id="paint8_linear_10_1011" x1="500.434" y1="385.015" x2="500.434" y2="398.578" gradientUnits="userSpaceOnUse">
<stop stop-color="#0994DC"/>
<stop offset="0.35001" stop-color="#66CEF5"/>
<stop offset="0.84616" stop-color="#127BCA"/>
<stop offset="1" stop-color="#127BCA"/>
</linearGradient>
<linearGradient id="paint9_linear_10_1011" x1="500.951" y1="384.672" x2="500.951" y2="398.581" gradientUnits="userSpaceOnUse">
<stop stop-color="#0E76BC"/>
<stop offset="0.36" stop-color="#36AEE8"/>
<stop offset="0.84616" stop-color="#00ADEF"/>
<stop offset="1" stop-color="#00ADEF"/>
</linearGradient>
<linearGradient id="paint10_linear_10_1011" x1="503.747" y1="395.572" x2="503.747" y2="384.504" gradientUnits="userSpaceOnUse">
<stop stop-color="#1C63B7"/>
<stop offset="0.5" stop-color="#33BDF2"/>
<stop offset="1" stop-color="#33BDF2" stop-opacity="0.42"/>
</linearGradient>
<linearGradient id="paint11_linear_10_1011" x1="503.02" y1="383.262" x2="503.02" y2="397.703" gradientUnits="userSpaceOnUse">
<stop stop-color="#166AB8"/>
<stop offset="0.39999" stop-color="#36AEE8"/>
<stop offset="0.84616" stop-color="#0798DD"/>
<stop offset="1" stop-color="#0798DD"/>
</linearGradient>
<linearGradient id="paint12_linear_10_1011" x1="501.881" y1="383.338" x2="501.881" y2="398.694" gradientUnits="userSpaceOnUse">
<stop stop-color="#124379"/>
<stop offset="0.39" stop-color="#1487CB"/>
<stop offset="0.78023" stop-color="#165197"/>
<stop offset="1" stop-color="#165197"/>
</linearGradient>
<linearGradient id="paint13_linear_10_1011" x1="495.713" y1="388.052" x2="497.885" y2="388.052" gradientUnits="userSpaceOnUse">
<stop stop-color="#33BDF2" stop-opacity="0.698"/>
<stop offset="1" stop-color="#1DACD8"/>
</linearGradient>
<linearGradient id="paint14_linear_10_1011" x1="512.02" y1="395.294" x2="512.02" y2="384.513" gradientUnits="userSpaceOnUse">
<stop stop-color="#136AB4"/>
<stop offset="0.6" stop-color="#59CAF5" stop-opacity="0.549"/>
<stop offset="1" stop-color="#59CAF5" stop-opacity="0.235"/>
</linearGradient>
<linearGradient id="paint15_linear_10_1011" x1="488.009" y1="390.628" x2="496.062" y2="390.628" gradientUnits="userSpaceOnUse">
<stop stop-color="#05A1E6" stop-opacity="0.247"/>
<stop offset="1" stop-color="#05A1E6"/>
</linearGradient>
<linearGradient id="paint16_linear_10_1011" x1="492.469" y1="395.566" x2="492.469" y2="384.527" gradientUnits="userSpaceOnUse">
<stop stop-color="#318ED5"/>
<stop offset="1" stop-color="#38A7E4"/>
</linearGradient>
<linearGradient id="paint17_linear_10_1011" x1="493.164" y1="395.604" x2="493.164" y2="384.874" gradientUnits="userSpaceOnUse">
<stop stop-color="#05A1E6"/>
<stop offset="1" stop-color="#05A1E6" stop-opacity="0.549"/>
</linearGradient>
<linearGradient id="paint18_linear_10_1011" x1="493.741" y1="396.152" x2="493.741" y2="387.084" gradientUnits="userSpaceOnUse">
<stop stop-color="#1959A6"/>
<stop offset="0.5" stop-color="#05A1E6"/>
<stop offset="0.91759" stop-color="#7EC5EA"/>
<stop offset="1" stop-color="#7EC5EA"/>
</linearGradient>
<linearGradient id="paint19_linear_10_1011" x1="494.088" y1="395.573" x2="491.015" y2="386.18" gradientUnits="userSpaceOnUse">
<stop stop-color="#165096"/>
<stop offset="1" stop-color="#0D82CA"/>
</linearGradient>
<linearGradient id="paint20_linear_10_1011" x1="510.174" y1="390.013" x2="510.174" y2="384.875" gradientUnits="userSpaceOnUse">
<stop stop-color="#05A1E6"/>
<stop offset="0.87363" stop-color="#0495D6"/>
<stop offset="1" stop-color="#0495D6"/>
</linearGradient>
<linearGradient id="paint21_linear_10_1011" x1="512.588" y1="384.4" x2="507.8" y2="395.032" gradientUnits="userSpaceOnUse">
<stop stop-color="#38A7E4" stop-opacity="0.329"/>
<stop offset="0.96153" stop-color="#0E88D3"/>
<stop offset="1" stop-color="#0E88D3"/>
</linearGradient>
<linearGradient id="paint22_linear_10_1011" x1="510.718" y1="384.816" x2="510.718" y2="396.025" gradientUnits="userSpaceOnUse">
<stop stop-color="#168CD4"/>
<stop offset="0.5" stop-color="#1C87CC"/>
<stop offset="1" stop-color="#154B8D"/>
</linearGradient>
<linearGradient id="paint23_linear_10_1011" x1="496.421" y1="384.585" x2="496.469" y2="385.761" gradientUnits="userSpaceOnUse">
<stop stop-color="#97D6EE"/>
<stop offset="0.70329" stop-color="#55C1EA"/>
<stop offset="1" stop-color="#55C1EA"/>
</linearGradient>
<linearGradient id="paint24_linear_10_1011" x1="497.914" y1="385.871" x2="498.133" y2="384.625" gradientUnits="userSpaceOnUse">
<stop stop-color="#7ACCEC"/>
<stop offset="1" stop-color="#3FB7ED"/>
</linearGradient>
<linearGradient id="paint25_linear_10_1011" x1="509.201" y1="385.436" x2="509.201" y2="396.399" gradientUnits="userSpaceOnUse">
<stop stop-color="#1DA7E7"/>
<stop offset="1" stop-color="#37ABE7" stop-opacity="0"/>
</linearGradient>
<clipPath id="clip0_10_1011">
<rect width="47.4602" height="47.4603" fill="white" transform="translate(64.0073 83.21)"/>
</clipPath>
<clipPath id="clip1_10_1011">
<rect width="24" height="24" fill="white" transform="translate(74.0073 93.21)"/>
</clipPath>
<clipPath id="clip2_10_1011">
<rect width="31.6402" height="31.6402" fill="white" transform="translate(444.745 292.035)"/>
</clipPath>
<clipPath id="clip3_10_1011">
<rect width="47.4603" height="47.4604" fill="white" transform="translate(357.206 23.0933)"/>
</clipPath>
<clipPath id="clip4_10_1011">
<rect width="54.7237" height="54.7236" fill="white" transform="translate(522.79 138.053)"/>
</clipPath>
<clipPath id="clip5_10_1011">
<rect width="31.6402" height="31.6402" fill="white" transform="translate(428.924 197.115)"/>
</clipPath>
<clipPath id="clip6_10_1011">
<rect width="25.3122" height="25.3122" fill="white" transform="translate(541.774 264.614)"/>
</clipPath>
<clipPath id="clip7_10_1011">
<rect width="24.0315" height="23.2028" fill="white" transform="translate(463.729 66.335)"/>
</clipPath>
<clipPath id="clip8_10_1011">
<rect width="35.2357" height="36.9136" fill="white" transform="translate(155.764 419.651)"/>
</clipPath>
<clipPath id="clip9_10_1011">
<rect width="18.9841" height="26.3668" fill="white" transform="translate(167.365 22.0386)"/>
</clipPath>
<clipPath id="clip10_10_1011">
<rect width="34.0741" height="25.3122" fill="white" transform="translate(67.1711 207.661)"/>
</clipPath>
<clipPath id="clip11_10_1011">
<rect width="25.3122" height="25.3122" fill="white" transform="translate(16.5468 300.473)"/>
</clipPath>
</defs>
</svg>
